<svg xmlns="http://www.w3.org/2000/svg" xmlns:xlink="http://www.w3.org/1999/xlink" id="body_1" preserveAspectRatio="xMinYMin meet" viewBox="0 0 793 1121"><defs><clipPath id="1"><path clip-rule="evenodd" d="M0 841L0 -0.8897705L0 -0.8897705L595.2756 -0.8897705L595.2756 -0.8897705L595.2756 841L595.2756 841L0 841z" /></clipPath><clipPath id="2"><path clip-rule="evenodd" d="M11.9906 829.0094L583.285 829.0094L583.285 829.0094L583.285 11.10077L583.285 11.10077L11.9906 11.10077z" /></clipPath><clipPath id="3"><path clip-rule="evenodd" d="M11.99063 829.0094L583.285 829.0094L583.285 829.0094L583.285 11.10077L583.285 11.10077L11.99063 11.10077z" /></clipPath><clipPath id="4"><path clip-rule="evenodd" d="M11.99061 829.0094L583.285 829.0094L583.285 829.0094L583.285 11.10077L583.285 11.10077L11.99061 11.10077z" /></clipPath><clipPath id="5"><path clip-rule="evenodd" d="M11.99061 829.0094L583.285 829.0094L583.285 829.0094L583.285 11.10077L583.285 11.10077L11.99061 11.10077z" /></clipPath><clipPath id="6"><path clip-rule="evenodd" d="M11.9906 829.0094L583.285 829.0094L583.285 829.0094L583.285 11.10077L583.285 11.10077L11.9906 11.10077z" /></clipPath><clipPath id="7"><path clip-rule="evenodd" d="M23.99061 47.34082L165.1106 47.34082L165.1106 47.34082L165.1106 23.34082L165.1106 23.34082L23.99061 23.34082z" /></clipPath><clipPath id="8"><path clip-rule="evenodd" d="M24.23061 47.34082L165.1106 47.34082L165.1106 47.34082L165.1106 23.34082L165.1106 23.34082L24.23061 23.34082z" /></clipPath><clipPath id="9"><path clip-rule="evenodd" d="M11.9906 829.0094L583.285 829.0094L583.285 829.0094L583.285 11.10077L583.285 11.10077L11.9906 11.10077z" /></clipPath><clipPath id="10"><path clip-rule="evenodd" d="M210.7106 126.0609L484.0706 126.0609L484.0706 126.0609L484.0706 84.78088L484.0706 84.78088L210.7106 84.78088z" /></clipPath><clipPath id="11"><path clip-rule="evenodd" d="M210.7106 126.0609L484.0706 126.0609L484.0706 126.0609L484.0706 84.78094L484.0706 84.78094L210.7106 84.78094z" /></clipPath><clipPath id="12"><path clip-rule="evenodd" d="M210.7106 126.0609L484.0706 126.0609L484.0706 126.0609L484.0706 84.78094L484.0706 84.78094L210.7106 84.78094z" /></clipPath><clipPath id="13"><path clip-rule="evenodd" d="M210.7106 126.0609L484.0706 126.0609L484.0706 126.0609L484.0706 84.78094L484.0706 84.78094L210.7106 84.78094z" /></clipPath><clipPath id="14"><path clip-rule="evenodd" d="M205.6706 153.9008L428.8706 153.9008L428.8706 153.9008L428.8706 129.9008L428.8706 129.9008L205.6706 129.9008z" /></clipPath><clipPath id="15"><path clip-rule="evenodd" d="M205.6706 153.9008L428.6306 153.9008L428.6306 153.9008L428.6306 129.9008L428.6306 129.9008L205.6706 129.9008z" /></clipPath><clipPath id="16"><path clip-rule="evenodd" d="M205.6706 153.9008L428.6306 153.9008L428.6306 153.9008L428.6306 129.9008L428.6306 129.9008L205.6706 129.9008z" /></clipPath><clipPath id="17"><path clip-rule="evenodd" d="M205.6706 153.9008L428.6306 153.9008L428.6306 153.9008L428.6306 129.9008L428.6306 129.9008L205.6706 129.9008z" /></clipPath><clipPath id="18"><path clip-rule="evenodd" d="M208.3106 191.1008L401.7506 191.1008L401.7506 191.1008L401.7506 160.3808L401.7506 160.3808L208.3106 160.3808z" /></clipPath><clipPath id="19"><path clip-rule="evenodd" d="M208.3106 191.1008L401.7506 191.1008L401.7506 191.1008L401.7506 160.1408L401.7506 160.1408L208.3106 160.1408z" /></clipPath><clipPath id="20"><path clip-rule="evenodd" d="M208.3106 191.1008L401.7506 191.1008L401.7506 191.1008L401.7506 160.1408L401.7506 160.1408L208.3106 160.1408z" /></clipPath><clipPath id="21"><path clip-rule="evenodd" d="M208.3106 191.1008L401.7506 191.1008L401.7506 191.1008L401.7506 160.1408L401.7506 160.1408L208.3106 160.1408z" /></clipPath><clipPath id="22"><path clip-rule="evenodd" d="M208.3106 191.1008L401.7506 191.1008L401.7506 191.1008L401.7506 160.1408L401.7506 160.1408L208.3106 160.1408z" /></clipPath><clipPath id="23"><path clip-rule="evenodd" d="M207.8306 547.2608L583.285 547.2608L583.285 547.2608L583.285 540.3008L583.285 540.3008L207.8306 540.3008z" /></clipPath><clipPath id="24"><path clip-rule="evenodd" d="M207.8306 547.2608L583.285 547.2608L583.285 547.2608L583.285 540.3008L583.285 540.3008L207.8306 540.3008z" /></clipPath><clipPath id="25"><path clip-rule="evenodd" d="M11.9906 829.0094L583.285 829.0094L583.285 829.0094L583.285 11.10077L583.285 11.10077L11.9906 11.10077z" /></clipPath><clipPath id="26"><path clip-rule="evenodd" d="M209.2706 569.8208L247.6706 569.8208L247.6706 569.8208L247.6706 551.5808L247.6706 551.5808L209.2706 551.5808z" /></clipPath><clipPath id="27"><path clip-rule="evenodd" d="M209.2706 569.8208L247.6706 569.8208L247.6706 569.8208L247.6706 551.5808L247.6706 551.5808L209.2706 551.5808z" /></clipPath><clipPath id="28"><path clip-rule="evenodd" d="M219.8306 569.1008L572.8706 569.1008L572.8706 569.1008L572.8706 548.4608L572.8706 548.4608L219.8306 548.4608z" /></clipPath><clipPath id="29"><path clip-rule="evenodd" d="M219.8306 569.1008L572.6306 569.1008L572.6306 569.1008L572.6306 548.4608L572.6306 548.4608L219.8306 548.4608z" /></clipPath><clipPath id="30"><path clip-rule="evenodd" d="M219.8306 569.1008L572.6306 569.1008L572.6306 569.1008L572.6306 548.4608L572.6306 548.4608L219.8306 548.4608z" /></clipPath><clipPath id="31"><path clip-rule="evenodd" d="M219.8306 569.1008L572.6306 569.1008L572.6306 569.1008L572.6306 548.4608L572.6306 548.4608L219.8306 548.4608z" /></clipPath><clipPath id="32"><path clip-rule="evenodd" d="M219.8306 569.1008L572.6306 569.1008L572.6306 569.1008L572.6306 548.4608L572.6306 548.4608L219.8306 548.4608z" /></clipPath><clipPath id="33"><path clip-rule="evenodd" d="M215.2706 782.7008L563.2706 782.7008L563.2706 782.7008L563.2706 571.0208L563.2706 571.0208L215.2706 571.0208z" /></clipPath><clipPath id="34"><path clip-rule="evenodd" d="M215.2706 782.7008L563.2706 782.7008L563.2706 782.7008L563.2706 571.0208L563.2706 571.0208L215.2706 571.0208z" /></clipPath><clipPath id="35"><path clip-rule="evenodd" d="M215.2706 782.7008L563.2706 782.7008L563.2706 782.7008L563.2706 571.0208L563.2706 571.0208L215.2706 571.0208z" /></clipPath><clipPath id="36"><path clip-rule="evenodd" d="M11.9906 829.0094L583.285 829.0094L583.285 829.0094L583.285 11.10077L583.285 11.10077L11.9906 11.10077z" /></clipPath><clipPath id="37"><path clip-rule="evenodd" d="M293.7506 710.9408L372.9506 710.9408L372.9506 710.9408L372.9506 631.7408L372.9506 631.7408L293.7506 631.7408z" /></clipPath><clipPath id="38"><path clip-rule="evenodd" d="M11.9906 829.0094L583.285 829.0094L583.285 829.0094L583.285 11.10077L583.285 11.10077L11.9906 11.10077z" /></clipPath><clipPath id="39"><path clip-rule="evenodd" d="M215.2706 782.7008L563.2706 782.7008L563.2706 782.7008L563.2706 571.0208L563.2706 571.0208L215.2706 571.0208z" /></clipPath><clipPath id="40"><path clip-rule="evenodd" d="M11.9906 829.0094L583.285 829.0094L583.285 829.0094L583.285 11.10077L583.285 11.10077L11.9906 11.10077z" /></clipPath><clipPath id="41"><path clip-rule="evenodd" d="M49.19061 175.7408L220.7906 175.7408L220.7906 175.7408L220.7906 64.62079L220.7906 64.62079L49.19061 64.62079z" /></clipPath><clipPath id="42"><path clip-rule="evenodd" d="M49.19061 175.7408L220.7906 175.7408L220.7906 175.7408L220.7906 64.62079L220.7906 64.62079L49.19061 64.62079z" /></clipPath><clipPath id="43"><path clip-rule="evenodd" d="M49.19061 175.7408L220.7906 175.7408L220.7906 175.7408L220.7906 64.62079L220.7906 64.62079L49.19061 64.62079z" /></clipPath><clipPath id="44"><path clip-rule="evenodd" d="M49.19061 175.7408L220.7906 175.7408L220.7906 175.7408L220.7906 64.62079L220.7906 64.62079L49.19061 64.62079z" /></clipPath><clipPath id="45"><path clip-rule="evenodd" d="M11.9906 829.0094L583.285 829.0094L583.285 829.0094L583.285 11.10077L583.285 11.10077L11.9906 11.10077z" /></clipPath><clipPath id="46"><path clip-rule="evenodd" d="M49.19061 175.7408L220.7906 175.7408L220.7906 175.7408L220.7906 64.62079L220.7906 64.62079L49.19061 64.62079z" /></clipPath><clipPath id="47"><path clip-rule="evenodd" d="M11.9906 829.0094L583.285 829.0094L583.285 829.0094L583.285 11.10077L583.285 11.10077L11.9906 11.10077z" /></clipPath><clipPath id="48"><path clip-rule="evenodd" d="M11.9906 205.7408L583.285 205.7408L583.285 205.7408L583.285 198.7808L583.285 198.7808L11.9906 198.7808z" /></clipPath><pattern patternTransform="matrix(0.03 0 0 -0.03 -1.449391 641.7392)" id="8884" x="0" y="0" width="64" height="64" patternUnits="userSpaceOnUse"><image x="0" y="0" width="64" height="64" xlink:href="img_11.png" /></pattern><clipPath id="49"><path clip-rule="evenodd" d="M11.9906 829.0094L583.285 829.0094L583.285 829.0094L583.285 11.10077L583.285 11.10077L11.9906 11.10077z" /></clipPath><clipPath id="50"><path clip-rule="evenodd" d="M22.79061 256.1408L163.9106 256.1408L163.9106 256.1408L163.9106 233.3408L163.9106 233.3408L22.79061 233.3408z" /></clipPath><clipPath id="51"><path clip-rule="evenodd" d="M23.03061 256.1408L163.9106 256.1408L163.9106 256.1408L163.9106 233.3408L163.9106 233.3408L23.03061 233.3408z" /></clipPath><clipPath id="52"><path clip-rule="evenodd" d="M11.9906 829.0094L583.285 829.0094L583.285 829.0094L583.285 11.10077L583.285 11.10077L11.9906 11.10077z" /></clipPath><clipPath id="53"><path clip-rule="evenodd" d="M22.79061 570.3008L163.6706 570.3008L163.6706 570.3008L163.6706 547.5009L163.6706 547.5009L22.79061 547.5009z" /></clipPath><clipPath id="54"><path clip-rule="evenodd" d="M22.79061 570.3008L163.6706 570.3008L163.6706 570.3008L163.6706 547.5009L163.6706 547.5009L22.79061 547.5009z" /></clipPath><clipPath id="55"><path clip-rule="evenodd" d="M11.9906 829.0094L583.285 829.0094L583.285 829.0094L583.285 11.10077L583.285 11.10077L11.9906 11.10077z" /></clipPath><clipPath id="56"><path clip-rule="evenodd" d="M203.9906 261.4208L392.6306 261.4208L392.6306 261.4208L392.6306 227.3408L392.6306 227.3408L203.9906 227.3408z" /></clipPath><clipPath id="57"><path clip-rule="evenodd" d="M203.9906 261.4208L392.6306 261.4208L392.6306 261.4208L392.6306 227.3408L392.6306 227.3408L203.9906 227.3408z" /></clipPath><clipPath id="58"><path clip-rule="evenodd" d="M203.9906 261.4208L392.6306 261.4208L392.6306 261.4208L392.6306 227.3408L392.6306 227.3408L203.9906 227.3408z" /></clipPath><clipPath id="59"><path clip-rule="evenodd" d="M11.9906 829.0094L583.285 829.0094L583.285 829.0094L583.285 11.10077L583.285 11.10077L11.9906 11.10077z" /></clipPath><clipPath id="60"><path clip-rule="evenodd" d="M230.8706 307.7408L545.7506 307.7408L545.7506 307.7408L545.7506 259.9808L545.7506 259.9808L230.8706 259.9808z" /></clipPath><clipPath id="61"><path clip-rule="evenodd" d="M230.8706 307.7408L545.7506 307.7408L545.7506 307.7408L545.7506 259.9808L545.7506 259.9808L230.8706 259.9808z" /></clipPath><clipPath id="62"><path clip-rule="evenodd" d="M11.9906 829.0094L583.285 829.0094L583.285 829.0094L583.285 11.10077L583.285 11.10077L11.9906 11.10077z" /></clipPath><clipPath id="63"><path clip-rule="evenodd" d="M230.8706 307.7408L545.7506 307.7408L545.7506 307.7408L545.7506 259.9808L545.7506 259.9808L230.8706 259.9808z" /></clipPath><clipPath id="64"><path clip-rule="evenodd" d="M11.9906 829.0094L583.285 829.0094L583.285 829.0094L583.285 11.10077L583.285 11.10077L11.9906 11.10077z" /></clipPath><clipPath id="65"><path clip-rule="evenodd" d="M230.8706 307.7408L545.7506 307.7408L545.7506 307.7408L545.7506 259.9808L545.7506 259.9808L230.8706 259.9808z" /></clipPath><clipPath id="66"><path clip-rule="evenodd" d="M11.9906 829.0094L583.285 829.0094L583.285 829.0094L583.285 11.10077L583.285 11.10077L11.9906 11.10077z" /></clipPath><clipPath id="67"><path clip-rule="evenodd" d="M230.8706 307.7408L545.7506 307.7408L545.7506 307.7408L545.7506 259.9808L545.7506 259.9808L230.8706 259.9808z" /></clipPath><clipPath id="68"><path clip-rule="evenodd" d="M11.9906 829.0094L583.285 829.0094L583.285 829.0094L583.285 11.10077L583.285 11.10077L11.9906 11.10077z" /></clipPath><clipPath id="69"><path clip-rule="evenodd" d="M230.8706 307.7408L545.7506 307.7408L545.7506 307.7408L545.7506 259.9808L545.7506 259.9808L230.8706 259.9808z" /></clipPath><clipPath id="70"><path clip-rule="evenodd" d="M11.9906 829.0094L583.285 829.0094L583.285 829.0094L583.285 11.10077L583.285 11.10077L11.9906 11.10077z" /></clipPath><clipPath id="71"><path clip-rule="evenodd" d="M230.8706 307.7408L545.7506 307.7408L545.7506 307.7408L545.7506 259.9808L545.7506 259.9808L230.8706 259.9808z" /></clipPath><clipPath id="72"><path clip-rule="evenodd" d="M230.8706 307.7408L545.7506 307.7408L545.7506 307.7408L545.7506 259.9808L545.7506 259.9808L230.8706 259.9808z" /></clipPath><clipPath id="73"><path clip-rule="evenodd" d="M230.8706 307.7408L545.7506 307.7408L545.7506 307.7408L545.7506 259.9808L545.7506 259.9808L230.8706 259.9808z" /></clipPath><clipPath id="74"><path clip-rule="evenodd" d="M230.8706 307.7408L545.7506 307.7408L545.7506 307.7408L545.7506 259.9808L545.7506 259.9808L230.8706 259.9808z" /></clipPath><clipPath id="75"><path clip-rule="evenodd" d="M230.8706 307.7408L545.7506 307.7408L545.7506 307.7408L545.7506 259.9808L545.7506 259.9808L230.8706 259.9808z" /></clipPath><clipPath id="76"><path clip-rule="evenodd" d="M230.8706 307.7408L545.7506 307.7408L545.7506 307.7408L545.7506 259.9808L545.7506 259.9808L230.8706 259.9808z" /></clipPath><clipPath id="77"><path clip-rule="evenodd" d="M230.8706 307.7408L545.7506 307.7408L545.7506 307.7408L545.7506 259.9808L545.7506 259.9808L230.8706 259.9808z" /></clipPath><clipPath id="78"><path clip-rule="evenodd" d="M230.8706 307.7408L545.7506 307.7408L545.7506 307.7408L545.7506 259.9808L545.7506 259.9808L230.8706 259.9808z" /></clipPath><clipPath id="79"><path clip-rule="evenodd" d="M230.8706 307.7408L545.7506 307.7408L545.7506 307.7408L545.7506 259.9808L545.7506 259.9808L230.8706 259.9808z" /></clipPath><clipPath id="80"><path clip-rule="evenodd" d="M203.9906 338.9408L392.8706 338.9408L392.8706 338.9408L392.8706 305.1008L392.8706 305.1008L203.9906 305.1008z" /></clipPath><clipPath id="81"><path clip-rule="evenodd" d="M203.9906 338.9408L392.8706 338.9408L392.8706 338.9408L392.8706 305.1008L392.8706 305.1008L203.9906 305.1008z" /></clipPath><clipPath id="82"><path clip-rule="evenodd" d="M203.9906 338.9408L392.8706 338.9408L392.8706 338.9408L392.8706 305.1008L392.8706 305.1008L203.9906 305.1008z" /></clipPath><clipPath id="83"><path clip-rule="evenodd" d="M11.9906 829.0094L583.285 829.0094L583.285 829.0094L583.285 11.10077L583.285 11.10077L11.9906 11.10077z" /></clipPath><clipPath id="84"><path clip-rule="evenodd" d="M230.8706 408.7808L554.6306 408.7808L554.6306 408.7808L554.6306 337.9808L554.6306 337.9808L230.8706 337.9808z" /></clipPath><clipPath id="85"><path clip-rule="evenodd" d="M230.8706 408.7808L554.6306 408.7808L554.6306 408.7808L554.6306 337.9808L554.6306 337.9808L230.8706 337.9808z" /></clipPath><clipPath id="86"><path clip-rule="evenodd" d="M11.9906 829.0094L583.285 829.0094L583.285 829.0094L583.285 11.10077L583.285 11.10077L11.9906 11.10077z" /></clipPath><clipPath id="87"><path clip-rule="evenodd" d="M230.8706 408.7808L554.6305 408.7808L554.6305 408.7808L554.6305 337.9808L554.6305 337.9808L230.8706 337.9808z" /></clipPath><clipPath id="88"><path clip-rule="evenodd" d="M11.9906 829.0094L583.285 829.0094L583.285 829.0094L583.285 11.10077L583.285 11.10077L11.9906 11.10077z" /></clipPath><clipPath id="89"><path clip-rule="evenodd" d="M230.8706 408.7808L554.6306 408.7808L554.6306 408.7808L554.6306 337.9808L554.6306 337.9808L230.8706 337.9808z" /></clipPath><clipPath id="90"><path clip-rule="evenodd" d="M11.9906 829.0094L583.285 829.0094L583.285 829.0094L583.285 11.10077L583.285 11.10077L11.9906 11.10077z" /></clipPath><clipPath id="91"><path clip-rule="evenodd" d="M230.8706 408.7808L554.6305 408.7808L554.6305 408.7808L554.6305 337.9808L554.6305 337.9808L230.8706 337.9808z" /></clipPath><clipPath id="92"><path clip-rule="evenodd" d="M11.9906 829.0094L583.285 829.0094L583.285 829.0094L583.285 11.10077L583.285 11.10077L11.9906 11.10077z" /></clipPath><clipPath id="93"><path clip-rule="evenodd" d="M203.9906 434.9408L392.8706 434.9408L392.8706 434.9408L392.8706 401.1008L392.8706 401.1008L203.9906 401.1008z" /></clipPath><clipPath id="94"><path clip-rule="evenodd" d="M203.9906 434.9408L392.8706 434.9408L392.8706 434.9408L392.8706 401.1008L392.8706 401.1008L203.9906 401.1008z" /></clipPath><clipPath id="95"><path clip-rule="evenodd" d="M203.9906 434.9408L392.8706 434.9408L392.8706 434.9408L392.8706 401.1008L392.8706 401.1008L203.9906 401.1008z" /></clipPath><clipPath id="96"><path clip-rule="evenodd" d="M11.9906 829.0094L583.285 829.0094L583.285 829.0094L583.285 11.10077L583.285 11.10077L11.9906 11.10077z" /></clipPath><clipPath id="97"><path clip-rule="evenodd" d="M230.8706 526.1408L563.5106 526.1408L563.5106 526.1408L563.5106 431.5808L563.5106 431.5808L230.8706 431.5808z" /></clipPath><clipPath id="98"><path clip-rule="evenodd" d="M230.8706 526.1408L563.5106 526.1408L563.5106 526.1408L563.5106 431.5808L563.5106 431.5808L230.8706 431.5808z" /></clipPath><clipPath id="99"><path clip-rule="evenodd" d="M11.9906 829.0094L583.285 829.0094L583.285 829.0094L583.285 11.10077L583.285 11.10077L11.9906 11.10077z" /></clipPath><clipPath id="100"><path clip-rule="evenodd" d="M230.8706 526.1408L563.5106 526.1408L563.5106 526.1408L563.5106 431.5808L563.5106 431.5808L230.8706 431.5808z" /></clipPath><clipPath id="101"><path clip-rule="evenodd" d="M11.9906 829.0094L583.285 829.0094L583.285 829.0094L583.285 11.10077L583.285 11.10077L11.9906 11.10077z" /></clipPath><clipPath id="102"><path clip-rule="evenodd" d="M230.8706 526.1408L563.5106 526.1408L563.5106 526.1408L563.5106 431.5808L563.5106 431.5808L230.8706 431.5808z" /></clipPath><clipPath id="103"><path clip-rule="evenodd" d="M11.9906 829.0094L583.285 829.0094L583.285 829.0094L583.285 11.10077L583.285 11.10077L11.9906 11.10077z" /></clipPath><clipPath id="104"><path clip-rule="evenodd" d="M230.8706 526.1408L563.5106 526.1408L563.5106 526.1408L563.5106 431.5808L563.5106 431.5808L230.8706 431.5808z" /></clipPath><clipPath id="105"><path clip-rule="evenodd" d="M230.8706 526.1408L563.5106 526.1408L563.5106 526.1408L563.5106 431.5808L563.5106 431.5808L230.8706 431.5808z" /></clipPath><clipPath id="106"><path clip-rule="evenodd" d="M230.8706 526.1408L563.5106 526.1408L563.5106 526.1408L563.5106 431.5808L563.5106 431.5808L230.8706 431.5808z" /></clipPath><clipPath id="107"><path clip-rule="evenodd" d="M230.8706 526.1408L563.5106 526.1408L563.5106 526.1408L563.5106 431.5808L563.5106 431.5808L230.8706 431.5808z" /></clipPath><clipPath id="108"><path clip-rule="evenodd" d="M230.8706 526.1408L563.5106 526.1408L563.5106 526.1408L563.5106 431.5808L563.5106 431.5808L230.8706 431.5808z" /></clipPath><clipPath id="109"><path clip-rule="evenodd" d="M230.8706 526.1408L563.5106 526.1408L563.5106 526.1408L563.5106 431.5808L563.5106 431.5808L230.8706 431.5808z" /></clipPath><clipPath id="110"><path clip-rule="evenodd" d="M230.8706 526.1408L563.5106 526.1408L563.5106 526.1408L563.5106 431.5808L563.5106 431.5808L230.8706 431.5808z" /></clipPath><clipPath id="111"><path clip-rule="evenodd" d="M11.99062 11.10083L583.1906 11.10083L583.1906 11.10083L583.1906 829.0208L583.1906 829.0208L11.99062 829.0208zM185.5106 233.9409C 180.8052 233.9409 176.9906 237.7554 176.9906 242.4608C 176.9906 247.1663 180.8052 250.9808 185.5106 250.9808C 190.2161 250.9808 194.0306 247.1663 194.0306 242.4608C 194.0306 237.7554 190.2161 233.9409 185.5106 233.9409z" /></clipPath><clipPath id="112"><path clip-rule="evenodd" d="M172 256L199 256L199 256L199 229L199 229L172 229z" /></clipPath><clipPath id="113"><path clip-rule="evenodd" d="M172 256L199 256L199 256L199 229L199 229L172 229z" /></clipPath><clipPath id="114"><path clip-rule="evenodd" d="M0 841L584 841L584 841L584 11L584 11L0 11z" /></clipPath><clipPath id="115"><path clip-rule="evenodd" d="M11.9906 829.0094L583.285 829.0094L583.285 829.0094L583.285 11.10077L583.285 11.10077L11.9906 11.10077z" /></clipPath><clipPath id="116"><path clip-rule="evenodd" d="M11.99062 11.10083L583.1906 11.10083L583.1906 11.10083L583.1906 829.0208L583.1906 829.0208L11.99062 829.0208zM185.5106 549.7808C 180.8052 549.7808 176.9906 553.5953 176.9906 558.3008C 176.9906 563.0063 180.8052 566.8208 185.5106 566.8208C 190.2161 566.8208 194.0306 563.0063 194.0306 558.3008C 194.0306 553.5953 190.2161 549.7808 185.5106 549.7808z" /></clipPath><clipPath id="117"><path clip-rule="evenodd" d="M172 572L199 572L199 572L199 545L199 545L172 545z" /></clipPath><clipPath id="118"><path clip-rule="evenodd" d="M172 572L199 572L199 572L199 545L199 545L172 545z" /></clipPath><clipPath id="119"><path clip-rule="evenodd" d="M0 841L584 841L584 841L584 11L584 11L0 11z" /></clipPath><clipPath id="120"><path clip-rule="evenodd" d="M11.9906 829.0094L583.285 829.0094L583.285 829.0094L583.285 11.10077L583.285 11.10077L11.9906 11.10077z" /></clipPath><clipPath id="121"><path clip-rule="evenodd" d="M428.6306 177.4208L575.5106 177.4208L575.5106 177.4208L575.5106 30.30078L575.5106 30.30078L428.6306 30.30078z" /></clipPath></defs><g transform="matrix(1.333333 0 0 1.333333 0 0)"><g clip-path="url(#1)"><g clip-path="url(#2)"><path transform="matrix(1 0 0 -1 0 841)" d="M-1.5694 757.5392L599.4306 757.5391" stroke="#3A3A3C" stroke-width="220.08" fill="none" /></g><g clip-path="url(#3)"></g><g clip-path="url(#4)"></g><g clip-path="url(#5)"></g><g clip-path="url(#6)"><path transform="matrix(1 0 0 -1 0 841)" d="M23.75061 818.1392L162.5618 818.1392L168.4706 805.6591L162.5618 793.1791L23.75061 793.1791z" stroke="none" fill="#9E3745" fill-rule="nonzero" /></g><g clip-path="url(#7)"><g transform="matrix(0.24 0 0 0.24 23.99061 23.34082)"><g transform="matrix(1 0 0 1 0 0)"><image x="0" y="0" xlink:href="img_01.png" width="588" height="100" /></g></g></g><g clip-path="url(#8)"></g><g clip-path="url(#9)"><path transform="matrix(1 0 0 -1 0 841)" d="M484.5506 756.6992L215.2468 756.6992L205.1906 735.459L215.2468 714.2192L484.5506 714.2192z" stroke="none" fill="#9D3644" fill-rule="nonzero" /></g><g clip-path="url(#10)"><g transform="matrix(0.24 0 0 0.24 210.7106 84.78088)"><g transform="matrix(1 0 0 1 0 0)"><image x="0" y="0" xlink:href="img_02.png" width="1139" height="172" /></g></g></g><g clip-path="url(#11)"></g><g clip-path="url(#12)"></g><g clip-path="url(#13)"></g><g clip-path="url(#14)"><g transform="matrix(0.24 0 0 0.24 205.6706 129.9008)"><g transform="matrix(1 0 0 1 0 0)"><image x="0" y="0" xlink:href="img_03.png" width="930" height="100" /></g></g></g><g clip-path="url(#15)"></g><g clip-path="url(#16)"></g><g clip-path="url(#17)"></g><g clip-path="url(#18)"><g transform="matrix(0.24 0 0 0.24 208.3106 160.3809)"><g transform="matrix(1 0 0 1 0 0)"><image x="0" y="0" xlink:href="img_04.png" width="806" height="128" /></g></g></g><g clip-path="url(#19)"></g><g clip-path="url(#20)"></g><g clip-path="url(#21)"></g><g clip-path="url(#22)"></g><g clip-path="url(#23)"><g transform="matrix(0.24 0 0 0.24 207.8306 540.3008)"><g transform="matrix(1 0 0 1 0 0)"><image x="0" y="0" xlink:href="img_05.png" width="1591" height="29" /></g></g></g><g clip-path="url(#24)"></g><g clip-path="url(#25)"><path transform="matrix(1 0 0 -1 0 841)" d="M218.6306 289.8992L210.0209 289.8992L207.3506 280.2992L210.0209 270.6992L218.6306 270.6992z" stroke="none" fill="#9D3644" fill-rule="nonzero" /></g><g clip-path="url(#26)"><g transform="matrix(0.24 0 0 0.24 209.2706 551.5808)"><g transform="matrix(1 0 0 1 0 0)"><image x="0" y="0" xlink:href="img_06.png" width="160" height="76" /></g></g></g><g clip-path="url(#27)"></g><g clip-path="url(#28)"><g transform="matrix(0.24 0 0 0.24 219.8306 548.4608)"><g transform="matrix(1 0 0 1 0 0)"><image x="0" y="0" xlink:href="img_07.png" width="1471" height="86" /></g></g></g><g clip-path="url(#29)"></g><g clip-path="url(#30)"></g><g clip-path="url(#31)"></g><g clip-path="url(#32)"></g><g clip-path="url(#33)"><g transform="matrix(0.24 0 0 0.24 215.2706 571.0208)"><g transform="matrix(1 0 0 1 0 0)"><image x="0" y="0" xlink:href="img_08.png" width="1450" height="882" /></g></g></g><g clip-path="url(#34)"></g><g clip-path="url(#35)"></g><g clip-path="url(#36)"><path transform="matrix(1 0 0 -1 0 841)" d="M293.5106 215.9792L449.5106 215.9792L449.5106 215.9792L449.5106 216.6992L449.5106 216.6992L293.5106 216.6992z" stroke="none" fill="#954F71" fill-rule="evenodd" /></g><g clip-path="url(#37)"><g transform="matrix(0.24 0 0 0.24 293.7506 631.7408)"><g transform="matrix(1 0 0 1 0 0)"><image x="0" y="0" xlink:href="img_09.png" width="330" height="330" /></g></g></g><g clip-path="url(#38)"></g><g clip-path="url(#39)"></g><g clip-path="url(#40)"><path transform="matrix(1 0 0 -1 0 841)" d="M186.4706 840.8192L185.8706 -0.8807983" stroke="#A6A6A6" stroke-width="2.16" fill="none" /></g><g clip-path="url(#41)"><g transform="matrix(0.24 0 0 0.24 49.19061 64.62079)"><g transform="matrix(1 0 0 1 0 0)"><image x="0" y="0" xlink:href="img_10.png" width="715" height="463" /></g></g></g><g clip-path="url(#42)"></g><g clip-path="url(#43)"></g><g clip-path="url(#44)"></g><g clip-path="url(#45)"><path transform="matrix(1 0 0 -1 0 841)" d="M49.43061 700.2991L141.8306 700.2991L141.8306 700.2991L141.8306 701.0191L141.8306 701.0191L49.43061 701.0191z" stroke="none" fill="#A69EA0" fill-rule="evenodd" /></g><g clip-path="url(#46)"></g><g clip-path="url(#47)"><path transform="matrix(1 0 0 -1 0 841)" d="M49.43061 672.9391L172.7906 672.9391L172.7906 672.9391L172.7906 673.6591L172.7906 673.6591L49.43061 673.6591z" stroke="none" fill="#A69EA0" fill-rule="evenodd" /></g><g clip-path="url(#48)"><path transform="matrix(1 0 0 -1 0 841)" d="M11.9906 635.2592L583.285 635.2592L583.285 642.2192L11.9906 642.2192z" stroke="none" fill="url(#8884)" /></g><g clip-path="url(#49)"><path transform="matrix(1 0 0 -1 0 841)" d="M186.5906 839.8592L186.5907 642.0592" stroke="#D9D9D9" stroke-width="2.16" fill="none" /><path transform="matrix(1 0 0 -1 0 841)" d="M177.9506 803.8591C 177.9506 808.4984 181.7651 812.2592 186.4706 812.2592C 191.1761 812.2592 194.9906 808.4984 194.9906 803.8591C 194.9906 799.22 191.1761 795.4592 186.4706 795.4592C 181.7651 795.4592 177.9506 799.22 177.9506 803.8591z" stroke="none" fill="#9E3745" fill-rule="nonzero" /><path transform="matrix(1 0 0 -1 0 841)" d="M177.9506 803.8592C 177.9506 808.4984 181.7651 812.2592 186.4706 812.2592C 191.1761 812.2592 194.9906 808.4984 194.9906 803.8592C 194.9906 799.22 191.1761 795.4592 186.4706 795.4592C 181.7651 795.4592 177.9506 799.22 177.9506 803.8592z" stroke="#D9D9D9" stroke-width="4.56" fill="none" /><path transform="matrix(1 0 0 -1 0 841)" d="M177.4706 735.0992C 177.4706 739.8047 181.2851 743.6192 185.9906 743.6192C 190.6961 743.6192 194.5106 739.8047 194.5106 735.0992C 194.5106 730.3937 190.6961 726.5792 185.9906 726.5792C 181.2851 726.5792 177.4706 730.3937 177.4706 735.0992z" stroke="none" fill="#9E3745" fill-rule="nonzero" /><path transform="matrix(1 0 0 -1 0 841)" d="M177.4706 735.0992C 177.4706 739.8047 181.2851 743.6192 185.9906 743.6192C 190.6961 743.6192 194.5106 739.8047 194.5106 735.0992C 194.5106 730.3937 190.6961 726.5792 185.9906 726.5792C 181.2851 726.5792 177.4706 730.3937 177.4706 735.0992z" stroke="#D9D9D9" stroke-width="4.56" fill="none" /><path transform="matrix(1 0 0 -1 0 841)" d="M33.91722 734.0093C 33.91722 734.0093 33.91722 734.0093 33.91722 734.0093C 33.91722 734.0093 33.91722 734.0093 33.91722 734.0093zM33.91722 734.0093C 33.91722 734.0093 33.91722 734.0093 33.91722 734.0093C 33.91722 734.0093 33.91722 734.0093 33.91722 734.0093C 33.91722 734.0093 33.91722 734.0093 33.91722 734.0093C 27.81881 738.956 27.81881 738.956 27.81881 738.956C 27.81881 740.1095 27.81881 740.1095 27.81881 740.1095C 39.99338 740.1095 39.99338 740.1095 39.99338 740.1095C 39.99338 738.956 39.99338 738.956 39.99338 738.956C 33.91722 734.0093 33.91722 734.0093 33.91722 734.0093zM39.99338 732.5231C 39.99338 732.5231 39.99338 732.5231 39.99338 732.5231C 39.99338 732.5231 39.99338 732.5231 39.99338 732.5231C 39.99338 732.5231 39.99338 732.5231 39.99338 732.5231C 36.5658 735.5399 36.5658 735.5399 36.5658 735.5399C 39.99338 738.2018 39.99338 738.2018 39.99338 738.2018C 39.99338 732.5231 39.99338 732.5231 39.99338 732.5231zM31.24639 735.5399C 31.24639 735.5399 31.24639 735.5399 31.24639 735.5399C 31.24639 735.5399 31.24639 735.5399 31.24639 735.5399C 31.24639 735.5399 31.24639 735.5399 31.24639 735.5399C 27.81881 732.5231 27.81881 732.5231 27.81881 732.5231C 27.81881 738.2018 27.81881 738.2018 27.81881 738.2018C 31.24639 735.5399 31.24639 735.5399 31.24639 735.5399zM39.99338 731.7689C 39.99338 731.7689 39.99338 731.7689 39.99338 731.7689C 39.99338 731.7689 39.99338 731.7689 39.99338 731.7689C 39.99338 731.7689 39.99338 731.7689 39.99338 731.7689C 27.81881 731.7689 27.81881 731.7689 27.81881 731.7689C 31.6025 735.1849 31.6025 735.1849 31.6025 735.1849C 33.91722 733.2994 33.91722 733.2994 33.91722 733.2994C 36.20969 735.1849 36.20969 735.1849 36.20969 735.1849C 39.99338 731.7689 39.99338 731.7689 39.99338 731.7689zM23.99061 742.5718C 23.99061 744.413 25.48183 745.8992 27.3069 745.8992C 40.59432 745.8992 40.59432 745.8992 40.59432 745.8992C 42.41939 745.8992 43.91061 744.413 43.91061 742.5718C 43.91061 729.3066 43.91061 729.3066 43.91061 729.3066C 43.91061 727.4654 42.41939 725.9792 40.59432 725.9792C 27.3069 725.9792 27.3069 725.9792 27.3069 725.9792C 25.48183 725.9792 23.99061 727.4654 23.99061 729.3066L23.99061 729.3066L23.99061 742.5718z" stroke="none" fill="#9E3745" fill-rule="evenodd" /><path transform="matrix(1 0 0 -1 0 841)" d="M33.91722 771.925C 33.91722 771.925 33.91722 771.925 33.91722 771.925M33.91722 771.925C 32.15892 771.925 30.77899 770.6758 30.77899 769.1417C 30.77899 767.5858 32.15892 766.2489 33.91722 766.2489C 35.65327 766.2489 37.16674 767.5858 37.16674 769.1417C 37.16674 770.6758 35.65327 771.925 33.91722 771.925zM33.91722 762.1288C 33.91722 762.1288 29.15423 766.7749 29.15423 769.1417C 29.15423 771.399 31.35767 773.3714 33.91722 773.3714C 36.58806 773.3714 38.65796 771.399 38.65796 769.1417C 38.65796 766.7749 33.91722 762.1288 33.91722 762.1288zM23.99061 774.2919C 23.99061 776.1108 25.48183 777.5792 27.3069 777.5792C 40.59432 777.5792 40.59432 777.5792 40.59432 777.5792C 42.41939 777.5792 43.91061 776.1108 43.91061 774.2919C 43.91061 761.1865 43.91061 761.1865 43.91061 761.1865C 43.91061 759.3675 42.41939 757.8992 40.59432 757.8992C 27.3069 757.8992 27.3069 757.8992 27.3069 757.8992C 25.48183 757.8992 23.99061 759.3675 23.99061 761.1865L23.99061 761.1865L23.99061 774.2919z" stroke="none" fill="#9E3745" fill-rule="evenodd" /><path transform="matrix(1 0 0 -1 0 841)" d="M37.85671 703.2363C 37.85671 703.3679 37.85671 703.4993 37.85671 703.6527C 37.99025 703.6527 38.10154 703.6527 38.25734 703.6527C 38.25734 703.4993 38.25734 703.3679 38.25734 703.2363C 38.12379 703.2363 37.99025 703.2363 37.85671 703.2363zM31.80281 703.4774C 31.73604 703.7185 31.69152 703.9376 31.62475 704.2225C 31.51347 703.8719 31.42444 703.5651 31.33541 703.2363C 31.31316 703.2363 31.31316 703.2363 31.31316 703.2363C 30.93479 703.2144 30.93479 703.2144 30.80124 703.5651C 30.68996 703.9376 30.57868 704.3102 30.46739 704.6827C 30.44513 704.7047 30.44513 704.7704 30.42288 704.8362C 30.55642 704.8362 30.64545 704.8362 30.75673 704.8362C 30.80124 704.8143 30.86802 704.7485 30.86802 704.7047C 30.93479 704.4417 31.00156 704.2006 31.09059 703.9595C 31.09059 703.9376 31.11284 703.8719 31.11284 703.8062C 31.22413 704.1349 31.31316 704.4417 31.37993 704.7266C 31.37993 704.8143 31.42444 704.8362 31.51347 704.8362C 31.86958 704.8362 31.80281 704.88 31.89184 704.5513C 31.93635 704.3321 32.00312 704.0911 32.11441 703.8719C 32.18118 704.1349 32.24795 704.3759 32.31472 704.6389C 32.38149 704.8362 32.38149 704.8362 32.60406 704.8362C 32.67083 704.8362 32.7376 704.8362 32.80437 704.8362C 32.78212 704.7704 32.78212 704.7047 32.75986 704.6608C 32.62632 704.2444 32.49277 703.8062 32.35923 703.3679C 32.31472 703.2582 32.24795 703.2363 32.13667 703.2363C 31.86958 703.2363 31.86958 703.2363 31.80281 703.4774zM34.02851 704.1787C 34.00625 704.1787 34.00625 704.1787 34.00625 704.1787C 33.91722 703.8719 33.82819 703.5651 33.73917 703.2363C 33.73917 703.2363 33.73917 703.2363 33.71691 703.2363C 33.33854 703.2144 33.33854 703.2144 33.22726 703.587C 33.11597 703.9376 32.98243 704.3321 32.87114 704.6827C 32.87114 704.7266 32.84889 704.7704 32.82663 704.8362C 32.93792 704.8362 33.0492 704.8362 33.13823 704.8143C 33.205 704.8143 33.24951 704.7485 33.29403 704.6827C 33.3608 704.4417 33.42757 704.2225 33.49434 703.9814C 33.49434 703.9376 33.5166 703.8938 33.56111 703.8281C 33.62788 704.1349 33.71691 704.4198 33.78368 704.7047C 33.80594 704.7924 33.82819 704.8362 33.93948 704.8362C 34.27333 704.8362 34.20656 704.88 34.29559 704.5513C 34.36236 704.3321 34.42913 704.0911 34.4959 703.8719C 34.58493 704.1349 34.67396 704.3978 34.74073 704.6608C 34.78524 704.7924 34.82976 704.8362 34.9633 704.8362C 35.14136 704.8362 35.29716 704.8362 35.47521 704.8362C 35.60875 704.8362 35.65327 704.7924 35.67553 704.6827C 35.76455 704.3978 35.85358 704.1349 35.92035 703.8281C 35.94261 703.8719 35.96487 703.9157 35.98712 703.9376C 36.05389 704.2006 36.09841 704.4417 36.16518 704.7047C 36.18744 704.7924 36.23195 704.8362 36.36549 704.8362C 36.38775 704.8362 36.41 704.8362 36.45452 704.8362C 36.58806 704.8581 36.65483 704.7924 36.67709 704.6608C 36.7216 704.4198 36.78838 704.2006 36.85514 703.9376C 36.85514 703.9157 36.8774 703.8719 36.89966 703.8281C 36.98869 704.113 37.05546 704.3759 37.12223 704.6608C 37.16674 704.7924 37.23351 704.8362 37.38931 704.8362C 37.45609 704.8362 37.52285 704.8362 37.61188 704.8362C 37.58963 704.7704 37.58963 704.7047 37.54511 704.6389C 37.41157 704.2225 37.30029 703.8062 37.16674 703.3898C 37.12223 703.2802 37.07771 703.2363 36.94417 703.2363C 36.67709 703.2363 36.67709 703.2363 36.61032 703.4774C 36.54354 703.7185 36.47678 703.9376 36.41 704.2225C 36.32098 703.9157 36.23195 703.6308 36.16518 703.324C 36.16518 703.2363 36.09841 703.2363 36.05389 703.2363C 35.74229 703.2363 35.74229 703.2363 35.63101 703.5212C 35.49747 703.9376 35.36393 704.354 35.23038 704.7924C 35.18587 704.7266 35.18587 704.7047 35.16361 704.6608C 35.03007 704.2225 34.87428 703.8062 34.74073 703.3679C 34.71848 703.2582 34.67396 703.2363 34.56268 703.2363C 34.22882 703.2363 34.29559 703.1925 34.22882 703.4993C 34.16205 703.7185 34.09528 703.9376 34.02851 704.1787zM32.62632 708.9343C 32.31472 708.9343 32.04764 709.1973 32.04764 709.5261C 32.06989 709.8329 32.33698 710.1177 32.64857 710.0958C 32.96017 710.0958 33.22726 709.8329 33.205 709.5261C 33.205 709.1973 32.93792 708.9124 32.62632 708.9343zM29.73291 709.5261C 29.73291 709.1754 29.48808 708.9343 29.17649 708.9343C 28.86489 708.9343 28.5978 709.1973 28.57555 709.5042C 28.57555 709.8329 28.84263 710.1177 29.15423 710.0958C 29.48808 710.0958 29.73291 709.8329 29.73291 709.5261zM30.89027 708.9343C 30.57868 708.9343 30.31159 709.1973 30.31159 709.5261C 30.31159 709.8329 30.60093 710.1177 30.91253 710.0958C 31.22413 710.0958 31.49121 709.8329 31.46895 709.5042C 31.46895 709.1754 31.20187 708.9124 30.89027 708.9343zM39.77081 700.1024C 36.05389 700.1024 32.31472 700.1024 28.5978 700.1024C 28.5978 702.8419 28.5978 705.5813 28.5978 708.2988C 32.31472 708.2988 36.05389 708.2988 39.77081 708.2988C 39.77081 705.5813 39.77081 702.8638 39.77081 700.1024zM34.18431 699.4888C 36.00938 699.4888 37.83445 699.4888 39.65952 699.4888C 39.85984 699.4888 40.03789 699.5107 40.19369 699.686C 40.34949 699.8395 40.34949 700.0586 40.34949 700.2559C 40.34949 703.4993 40.34949 706.7209 40.34949 709.9424C 40.34949 710.0301 40.34949 710.1397 40.34949 710.2274C 40.28272 710.4684 40.14918 710.6218 39.92661 710.6876C 39.81532 710.7314 39.70404 710.7314 39.59275 710.7314C 37.23351 710.7314 34.87428 710.7314 32.51503 710.7314C 31.24639 710.7314 29.99999 710.7314 28.70909 710.7314C 28.21943 710.7314 27.99687 710.4904 27.99687 710.0082C 27.99687 709.9644 27.99687 709.9644 27.99687 709.9205C 27.99687 706.7209 27.99687 703.4993 27.99687 700.2778C 27.99687 700.2339 27.99687 700.1901 27.99687 700.1463C 28.01912 699.8176 28.15266 699.5984 28.41975 699.5327C 28.50878 699.5107 28.62006 699.4888 28.7536 699.4888C 30.55642 699.4888 32.35923 699.4888 34.18431 699.4888zM23.99061 711.6519C 23.99061 713.4708 25.48183 714.9391 27.3069 714.9391C 40.59432 714.9391 40.59432 714.9391 40.59432 714.9391C 42.41939 714.9391 43.91061 713.4708 43.91061 711.6519C 43.91061 698.5464 43.91061 698.5464 43.91061 698.5464C 43.91061 696.7275 42.41939 695.2592 40.59432 695.2592C 27.3069 695.2592 27.3069 695.2592 27.3069 695.2592C 25.48183 695.2592 23.99061 696.7275 23.99061 698.5464L23.99061 698.5464L23.99061 711.6519z" stroke="none" fill="#9E3745" fill-rule="evenodd" /><path transform="matrix(1 0 0 -1 0 841)" d="M33.65061 800.1049C 35.84061 800.1049 35.84061 800.1049 35.84061 800.1049C 35.84061 797.5677 35.84061 797.5677 35.84061 797.5677C 33.65061 797.5677 33.65061 797.5677 33.65061 797.5677L33.65061 797.5677L33.65061 800.1049zM36.93561 800.422C 36.93561 801.0563 36.66186 801.3734 36.11436 801.3734C 33.37686 801.3734 33.37686 801.3734 33.37686 801.3734C 32.82936 801.3734 32.55561 801.0563 32.55561 800.422C 32.55561 800.1049 32.55561 800.1049 32.55561 800.1049C 29.27061 800.1049 29.27061 800.1049 29.27061 800.1049C 29.27061 797.5677 29.27061 797.5677 29.27061 797.5677C 32.55561 797.5677 32.55561 797.5677 32.55561 797.5677C 32.55561 797.2505 32.55561 797.2505 32.55561 797.2505C 32.55561 796.6163 32.82936 796.2991 33.37686 796.2991C 36.11436 796.2991 36.11436 796.2991 36.11436 796.2991C 36.66186 796.2991 36.93561 796.6163 36.93561 797.2505C 36.93561 797.5677 36.93561 797.5677 36.93561 797.5677C 46.79061 797.5677 46.79061 797.5677 46.79061 797.5677C 46.79061 800.1049 46.79061 800.1049 46.79061 800.1049C 36.93561 800.1049 36.93561 800.1049 36.93561 800.1049L36.93561 800.1049L36.93561 800.422zM40.22061 806.4477C 42.41061 806.4477 42.41061 806.4477 42.41061 806.4477C 42.41061 803.9106 42.41061 803.9106 42.41061 803.9106C 40.22061 803.9106 40.22061 803.9106 40.22061 803.9106L40.22061 803.9106L40.22061 806.4477zM43.50561 806.7648C 43.50561 807.3992 43.23186 807.7163 42.68436 807.7163C 39.94686 807.7163 39.94686 807.7163 39.94686 807.7163C 39.39936 807.7163 39.12561 807.3992 39.12561 806.7648C 39.12561 806.4477 39.12561 806.4477 39.12561 806.4477C 29.27061 806.4477 29.27061 806.4477 29.27061 806.4477C 29.27061 803.9106 29.27061 803.9106 29.27061 803.9106C 39.12561 803.9106 39.12561 803.9106 39.12561 803.9106C 39.12561 803.5934 39.12561 803.5934 39.12561 803.5934C 39.12561 802.9592 39.39936 802.642 39.94686 802.642C 42.68436 802.642 42.68436 802.642 42.68436 802.642C 43.23186 802.642 43.50561 802.9592 43.50561 803.5934C 43.50561 803.9106 43.50561 803.9106 43.50561 803.9106C 46.79061 803.9106 46.79061 803.9106 46.79061 803.9106C 46.79061 806.4477 46.79061 806.4477 46.79061 806.4477C 43.50561 806.4477 43.50561 806.4477 43.50561 806.4477L43.50561 806.4477L43.50561 806.7648zM33.65061 812.7906C 35.84061 812.7906 35.84061 812.7906 35.84061 812.7906C 35.84061 810.2534 35.84061 810.2534 35.84061 810.2534C 33.65061 810.2534 33.65061 810.2534 33.65061 810.2534L33.65061 810.2534L33.65061 812.7906zM36.93561 812.7906C 36.93561 813.1077 36.93561 813.1077 36.93561 813.1077C 36.93561 813.742 36.66186 814.0591 36.11436 814.0591C 33.37686 814.0591 33.37686 814.0591 33.37686 814.0591C 32.82936 814.0591 32.55561 813.742 32.55561 813.1077C 32.55561 812.7906 32.55561 812.7906 32.55561 812.7906C 29.27061 812.7906 29.27061 812.7906 29.27061 812.7906C 29.27061 810.2534 29.27061 810.2534 29.27061 810.2534C 32.55561 810.2534 32.55561 810.2534 32.55561 810.2534C 32.55561 809.9363 32.55561 809.9363 32.55561 809.9363C 32.55561 809.302 32.82936 808.9849 33.37686 808.9849C 36.11436 808.9849 36.11436 808.9849 36.11436 808.9849C 36.66186 808.9849 36.93561 809.302 36.93561 809.9363C 36.93561 810.2534 36.93561 810.2534 36.93561 810.2534C 46.79061 810.2534 46.79061 810.2534 46.79061 810.2534C 46.79061 812.7906 46.79061 812.7906 46.79061 812.7906L46.79061 812.7906L36.93561 812.7906z" stroke="none" fill="#E3CAC4" fill-rule="evenodd" /><path transform="matrix(1 0 0 -1 0 841)" d="M52.19061 815.8592L52.19069 794.8592" stroke="#E3CAC4" stroke-width="2.16" fill="none" /><path transform="matrix(1 0 0 -1 0 841)" d="M248.2706 749.1392L248.2707 721.5892" stroke="#E3CAC4" stroke-width="2.16" fill="none" /><path transform="matrix(1 0 0 -1 0 841)" d="M236.4772 734.4848C 236.4772 734.4848 236.4772 734.4848 236.4772 734.4848M236.4772 734.4848C 235.0922 733.8704 233.0149 733.4096 230.9375 733.4096C 228.687 733.4096 226.9558 733.8704 225.5709 734.6384C 222.628 732.7952 220.5506 729.7232 220.5506 728.0336C 220.5506 725.2688 225.3978 723.5792 231.1106 723.5792C 236.9965 723.5792 241.6706 725.2688 241.6706 728.0336C 241.6706 729.7232 239.5932 732.7952 236.4772 734.4848zM231.1106 746.6192C 234.746 746.6192 237.689 744.008 237.689 740.7824C 237.689 737.7104 234.746 735.0992 231.1106 735.0992C 227.4752 735.0992 224.5322 737.7104 224.5322 740.7824C 224.5322 744.008 227.4752 746.6192 231.1106 746.6192z" stroke="none" fill="#E3CAC4" fill-rule="evenodd" /><path transform="matrix(1 0 0 -1 0 841)" d="M22.55061 609.5792L161.305 609.5792L167.2706 596.9791L161.305 584.3792L22.55061 584.3792z" stroke="none" fill="#9D3644" fill-rule="nonzero" /></g><g clip-path="url(#50)"><g transform="matrix(0.24 0 0 0.24 22.79061 233.3408)"><g transform="matrix(1 0 0 1 0 0)"><image x="0" y="0" xlink:href="img_12.png" width="588" height="95" /></g></g></g><g clip-path="url(#51)"></g><g clip-path="url(#52)"><path transform="matrix(1 0 0 -1 0 841)" d="M52.43061 607.2992L52.43069 586.3048" stroke="#E2CAC3" stroke-width="2.16" fill="none" /><path transform="matrix(1 0 0 -1 0 841)" d="M43.98932 602.7593C 43.98932 602.7593 43.98932 602.7593 43.98932 602.7593M43.98932 602.7593C 42.85899 601.5281 42.85899 601.5281 42.85899 601.5281C 41.06932 603.3275 41.06932 603.3275 41.06932 603.3275C 42.29383 604.4639 42.29383 604.4639 42.29383 604.4639C 42.38803 604.5587 42.57642 604.6533 42.67061 604.6533C 42.85899 604.6533 43.04738 604.5587 43.14157 604.4639C 43.98932 603.6116 43.98932 603.6116 43.98932 603.6116C 44.2719 603.3275 44.2719 602.9487 43.98932 602.7593zM35.13512 594.0466C 33.62803 595.5619 33.62803 595.5619 33.62803 595.5619C 40.40997 602.3805 40.40997 602.3805 40.40997 602.3805C 41.91706 600.8652 41.91706 600.8652 41.91706 600.8652C 35.13512 594.0466 35.13512 594.0466 35.13512 594.0466zM32.5919 592.8155C 33.06287 594.4255 33.06287 594.4255 33.06287 594.4255C 34.099 593.3837 34.099 593.3837 34.099 593.3837C 32.5919 592.8155 32.5919 592.8155 32.5919 592.8155zM44.83706 604.4639C 43.98932 605.3163 43.98932 605.3163 43.98932 605.3163C 43.32996 605.9792 42.10545 605.9792 41.44609 605.3163C 39.75061 603.3275 39.75061 603.3275 39.75061 603.3275C 32.12093 596.0354 32.12093 596.0354 32.12093 596.0354C 32.12093 595.7513 32.12093 595.7513 32.12093 595.7513C 32.12093 595.7513 32.12093 595.7513 32.12093 595.7513C 30.99061 591.9632 30.99061 591.9632 30.99061 591.9632C 31.74416 591.2056 31.74416 591.2056 31.74416 591.2056C 35.32351 592.5314 35.32351 592.5314 35.32351 592.5314C 35.41771 592.4367 35.41771 592.4367 35.41771 592.4367C 35.60609 592.4367 35.60609 592.4367 35.60609 592.4367C 42.85899 600.2023 42.85899 600.2023 42.85899 600.2023C 44.83706 601.8123 44.83706 601.8123 44.83706 601.8123C 45.59061 602.5699 45.59061 603.7063 44.83706 604.4639zM43.61255 599.0659C 43.32996 599.0659 43.04738 598.7818 43.04738 598.403C 43.04738 591.0162 43.04738 591.0162 43.04738 591.0162C 43.04738 590.2585 42.48222 589.5956 41.63448 589.5956C 30.89641 589.5956 30.89641 589.5956 30.89641 589.5956C 30.14287 589.5956 29.20093 590.2585 29.20093 591.0162C 29.20093 601.907 29.20093 601.907 29.20093 601.907C 29.20093 602.6646 30.14287 603.5169 30.89641 603.5169C 37.019 603.5169 37.019 603.5169 37.019 603.5169C 37.39577 603.5169 37.67835 603.801 37.67835 604.0851C 37.67835 604.4639 37.39577 604.6533 37.019 604.6533C 30.89641 604.6533 30.89641 604.6533 30.89641 604.6533C 29.29512 604.6533 28.07061 603.4222 28.07061 601.907C 28.07061 591.0162 28.07061 591.0162 28.07061 591.0162C 28.07061 589.5009 29.29512 588.4592 30.89641 588.4592C 41.63448 588.4592 41.63448 588.4592 41.63448 588.4592C 43.23577 588.4592 44.1777 589.5009 44.1777 591.0162C 44.1777 598.403 44.1777 598.403 44.1777 598.403C 44.1777 598.7818 43.98932 599.0659 43.61255 599.0659z" stroke="none" fill="#E2CAC3" fill-rule="evenodd" /><path transform="matrix(1 0 0 -1 0 841)" d="M22.31061 295.4192L161.305 295.4192L167.2706 282.8192L161.305 270.2192L22.31061 270.2192z" stroke="none" fill="#9D3644" fill-rule="nonzero" /></g><g clip-path="url(#53)"><g transform="matrix(0.24 0 0 0.24 22.79061 547.5009)"><g transform="matrix(1 0 0 1 0 0)"><image x="0" y="0" xlink:href="img_13.png" width="587" height="95" /></g></g></g><g clip-path="url(#54)"></g><g clip-path="url(#55)"><path transform="matrix(1 0 0 -1 0 841)" d="M52.19061 294.5792L52.19069 273.5792" stroke="#E2CAC3" stroke-width="2.16" fill="none" /><path transform="matrix(1 0 0 -1 0 841)" d="M45.19461 284.7177C 45.19461 284.7177 45.19461 284.7177 45.19461 284.7177M45.19461 284.7177C 45.19461 276.1142 45.19461 276.1142 45.19461 276.1142C 45.19461 276.1142 45.19461 275.1756 44.25861 275.1756C 27.41061 275.1756 27.41061 275.1756 27.41061 275.1756C 27.41061 275.1756 26.63061 275.0192 26.63061 275.9578C 26.63061 284.7177 26.63061 284.7177 26.63061 284.7177C 33.33861 282.0585 33.33861 282.0585 33.33861 282.0585C 33.33861 281.2763 33.33861 281.2763 33.33861 281.2763C 33.33861 281.2763 33.33861 280.3378 34.11861 280.3378C 37.55061 280.3378 37.55061 280.3378 37.55061 280.3378C 37.55061 280.3378 38.48661 280.3378 38.48661 281.2763C 38.48661 282.0585 38.48661 282.0585 38.48661 282.0585C 45.19461 284.7177 45.19461 284.7177 45.19461 284.7177zM38.17461 289.4106C 38.17461 290.5056 38.17461 290.5056 38.17461 290.5056C 38.17461 290.5056 38.33061 291.1313 37.86261 291.1313C 33.96261 291.1313 33.96261 291.1313 33.96261 291.1313C 33.96261 291.1313 33.49461 291.1313 33.49461 290.5056C 33.49461 289.4106 33.49461 289.4106 33.49461 289.4106C 32.09061 289.4106 32.09061 289.4106 32.09061 289.4106C 32.09061 291.4442 32.09061 291.4442 32.09061 291.4442C 32.09061 291.4442 32.09061 292.2263 33.02661 292.3828C 38.64261 292.3828 38.64261 292.3828 38.64261 292.3828C 38.64261 292.3828 39.73461 292.5392 39.73461 291.4442C 39.57861 289.4106 39.57861 289.4106 39.57861 289.4106C 38.17461 289.4106 38.17461 289.4106 38.17461 289.4106zM32.09061 289.4106C 27.25461 289.4106 27.25461 289.4106 27.25461 289.4106C 27.25461 289.4106 26.63061 289.567 26.63061 288.472C 26.63061 285.3435 26.63061 285.3435 26.63061 285.3435C 32.40261 282.997 32.40261 282.997 32.40261 282.997C 33.18261 282.997 33.18261 282.997 33.18261 282.997C 33.18261 283.6227 33.18261 283.6227 33.18261 283.6227C 33.18261 283.6227 33.33861 284.092 33.80661 284.092C 37.55061 284.092 37.55061 284.092 37.55061 284.092C 37.55061 284.092 38.48661 284.2485 38.48661 283.6227C 38.48661 282.997 38.48661 282.997 38.48661 282.997C 39.42261 282.997 39.42261 282.997 39.42261 282.997C 45.19461 285.3435 45.19461 285.3435 45.19461 285.3435C 45.19461 288.6285 45.19461 288.6285 45.19461 288.6285C 45.19461 288.6285 45.35061 289.4106 44.57061 289.4106C 39.57861 289.4106 39.57861 289.4106 39.57861 289.4106C 32.09061 289.4106 32.09061 289.4106 32.09061 289.4106zM34.11861 282.6842C 34.11861 282.6842 33.96261 283.3099 34.74261 283.3099C 37.08261 283.3099 37.08261 283.3099 37.08261 283.3099C 37.08261 283.3099 37.55061 283.3099 37.55061 282.6842C 37.55061 281.902 37.55061 281.902 37.55061 281.902C 37.55061 281.902 37.70661 281.2763 37.08261 281.2763C 34.74261 281.2763 34.74261 281.2763 34.74261 281.2763C 34.74261 281.2763 34.11861 280.9635 34.11861 281.902C 34.11861 282.6842 34.11861 282.6842 34.11861 282.6842z" stroke="none" fill="#C3C4C0" fill-rule="evenodd" /><path transform="matrix(1 0 0 -1 0 841)" d="M33.72174 681.1601C 33.72174 681.1601 33.72174 681.1601 33.72174 681.1601M33.72174 681.1601C 32.31955 681.1601 31.02864 680.0732 30.82833 678.5869C 30.82833 678.476 30.82833 677.8771 30.82833 677.7884C 30.82833 677.1007 31.91892 675.2152 33.72174 675.2152C 35.5023 675.2152 36.59289 677.1007 36.59289 677.7884C 36.59289 677.988 36.59289 678.476 36.59289 678.5869C 36.39257 680.0732 35.10167 681.1601 33.72174 681.1601zM30.02708 673.5293C 30.02708 673.5293 30.02708 673.5293 28.73617 670.2684C 28.73617 670.2684 31.22895 669.7805 33.72174 669.7805C 36.19226 669.7805 38.68504 670.2684 38.68504 670.2684C 38.68504 670.2684 38.68504 670.2684 37.39414 673.5293C 37.39414 673.5293 35.5023 674.4166 33.72174 674.4166C 32.00795 674.4166 30.02708 673.5293 30.02708 673.5293zM23.75061 682.0918C 23.75061 683.933 25.24183 685.4192 27.0669 685.4192C 40.35432 685.4192 40.35432 685.4192 40.35432 685.4192C 42.17939 685.4192 43.67061 683.933 43.67061 682.0918C 43.67061 668.8266 43.67061 668.8266 43.67061 668.8266C 43.67061 666.9854 42.17939 665.4992 40.35432 665.4992C 27.0669 665.4992 27.0669 665.4992 27.0669 665.4992C 25.24183 665.4992 23.75061 666.9854 23.75061 668.8266L23.75061 668.8266L23.75061 682.0918z" stroke="none" fill="#9D3644" fill-rule="evenodd" /></g><g clip-path="url(#56)"><g transform="matrix(0.24 0 0 0.24 203.9906 227.3408)"><g transform="matrix(1 0 0 1 0 0)"><image x="0" y="0" xlink:href="img_14.png" width="786" height="142" /></g></g></g><g clip-path="url(#57)"></g><g clip-path="url(#58)"></g><g clip-path="url(#59)"></g><g clip-path="url(#60)"><g transform="matrix(0.24 0 0 0.24 230.8706 259.9808)"><g transform="matrix(1 0 0 1 0 0)"><image x="0" y="0" xlink:href="img_15.png" width="1312" height="199" /></g></g></g><g clip-path="url(#61)"></g><g clip-path="url(#62)"></g><g clip-path="url(#63)"></g><g clip-path="url(#64)"></g><g clip-path="url(#65)"></g><g clip-path="url(#66)"></g><g clip-path="url(#67)"></g><g clip-path="url(#68)"></g><g clip-path="url(#69)"></g><g clip-path="url(#70)"></g><g clip-path="url(#71)"></g><g clip-path="url(#72)"></g><g clip-path="url(#73)"></g><g clip-path="url(#74)"></g><g clip-path="url(#75)"></g><g clip-path="url(#76)"></g><g clip-path="url(#77)"></g><g clip-path="url(#78)"></g><g clip-path="url(#79)"></g><g clip-path="url(#80)"><g transform="matrix(0.24 0 0 0.24 203.9906 305.1008)"><g transform="matrix(1 0 0 1 0 0)"><image x="0" y="0" xlink:href="img_16.png" width="787" height="141" /></g></g></g><g clip-path="url(#81)"></g><g clip-path="url(#82)"></g><g clip-path="url(#83)"></g><g clip-path="url(#84)"><g transform="matrix(0.24 0 0 0.24 230.8706 337.9808)"><g transform="matrix(1 0 0 1 0 0)"><image x="0" y="0" xlink:href="img_17.png" width="1349" height="295" /></g></g></g><g clip-path="url(#85)"></g><g clip-path="url(#86)"></g><g clip-path="url(#87)"></g><g clip-path="url(#88)"></g><g clip-path="url(#89)"></g><g clip-path="url(#90)"></g><g clip-path="url(#91)"></g><g clip-path="url(#92)"></g><g clip-path="url(#93)"><g transform="matrix(0.24 0 0 0.24 203.9906 401.1008)"><g transform="matrix(1 0 0 1 0 0)"><image x="0" y="0" xlink:href="img_16.png" width="787" height="141" /></g></g></g><g clip-path="url(#94)"></g><g clip-path="url(#95)"></g><g clip-path="url(#96)"></g><g clip-path="url(#97)"><g transform="matrix(0.24 0 0 0.24 230.8706 431.5808)"><g transform="matrix(1 0 0 1 0 0)"><image x="0" y="0" xlink:href="img_18.png" width="1386" height="394" /></g></g></g><g clip-path="url(#98)"></g><g clip-path="url(#99)"></g><g clip-path="url(#100)"></g><g clip-path="url(#101)"></g><g clip-path="url(#102)"></g><g clip-path="url(#103)"><path transform="matrix(1 0 0 -1 0 841)" d="M373.1906 379.4192L453.5906 379.4192L453.5906 379.4192L453.5906 392.6192L453.5906 392.6192L373.1906 392.6192z" stroke="none" fill="#FFFFFF" fill-rule="evenodd" /></g><g clip-path="url(#104)"></g><g clip-path="url(#105)"></g><g clip-path="url(#106)"></g><g clip-path="url(#107)"></g><g clip-path="url(#108)"></g><g clip-path="url(#109)"></g><g clip-path="url(#110)"></g><g clip-path="url(#111)"><g clip-path="url(#112)"><g><g clip-path="url(#113)"><g clip-path="url(#114)"><g transform="matrix(0.08 0 0 0.08 172.3106 229.2609)"><g transform="matrix(1 0 0 1 0 0)"><image x="0" y="0" xlink:href="img_19.png" width="330" height="330" /></g></g></g></g></g></g></g><g clip-path="url(#115)"><path transform="matrix(1 0 0 -1 0 841)" d="M176.9906 598.5392C 176.9906 603.2447 180.8051 607.0592 185.5106 607.0592C 190.2161 607.0592 194.0306 603.2447 194.0306 598.5392C 194.0306 593.8337 190.2161 590.0192 185.5106 590.0192C 180.8051 590.0192 176.9906 593.8337 176.9906 598.5392z" stroke="none" fill="#9E3745" fill-rule="nonzero" /><path transform="matrix(1 0 0 -1 0 841)" d="M176.9906 598.5392C 176.9906 603.2447 180.8051 607.0592 185.5106 607.0592C 190.2161 607.0592 194.0306 603.2447 194.0306 598.5392C 194.0306 593.8337 190.2161 590.0192 185.5106 590.0192C 180.8051 590.0192 176.9906 593.8337 176.9906 598.5392z" stroke="#D9D9D9" stroke-width="4.56" fill="none" /></g><g clip-path="url(#116)"><g clip-path="url(#117)"><g><g clip-path="url(#118)"><g clip-path="url(#119)"><g transform="matrix(0.08 0 0 0.08 172.3106 545.1008)"><g transform="matrix(1 0 0 1 0 0)"><image x="0" y="0" xlink:href="img_19.png" width="330" height="330" /></g></g></g></g></g></g></g><g clip-path="url(#120)"><path transform="matrix(1 0 0 -1 0 841)" d="M176.9906 282.6992C 176.9906 287.4046 180.8051 291.2192 185.5106 291.2192C 190.2161 291.2192 194.0306 287.4046 194.0306 282.6992C 194.0306 277.9937 190.2161 274.1792 185.5106 274.1792C 180.8051 274.1792 176.9906 277.9937 176.9906 282.6992z" stroke="none" fill="#9D3644" fill-rule="nonzero" /><path transform="matrix(1 0 0 -1 0 841)" d="M176.9906 282.6992C 176.9906 287.4047 180.8051 291.2192 185.5106 291.2192C 190.2161 291.2192 194.0306 287.4047 194.0306 282.6992C 194.0306 277.9937 190.2161 274.1792 185.5106 274.1792C 180.8051 274.1792 176.9906 277.9937 176.9906 282.6992z" stroke="#D9D9D9" stroke-width="4.56" fill="none" /></g><g clip-path="url(#121)"><g transform="matrix(0.2590476 0 0 0.2594709 428.6306 30.30078)"><g transform="matrix(1 0 0 1 0 0)"><image x="0" y="0" xlink:href="img_20.png" width="567" height="567" /></g></g></g></g></g></svg>