<svg xmlns="http://www.w3.org/2000/svg" xmlns:xlink="http://www.w3.org/1999/xlink" id="body_3" preserveAspectRatio="xMinYMin meet" viewBox="0 0 793 1121"><defs><clipPath id="1"><path clip-rule="evenodd" d="M0 841L0 -0.8897705L0 -0.8897705L595.2756 -0.8897705L595.2756 -0.8897705L595.2756 841L595.2756 841L0 841z" /></clipPath><clipPath id="2"><path clip-rule="evenodd" d="M11.9906 829.0094L583.285 829.0094L583.285 829.0094L583.285 11.10077L583.285 11.10077L11.9906 11.10077z" /></clipPath><clipPath id="3"><path clip-rule="evenodd" d="M215.2706 108.0609L563.2706 108.0609L563.2706 108.0609L563.2706 23.10089L563.2706 23.10089L215.2706 23.10089z" /></clipPath><clipPath id="4"><path clip-rule="evenodd" d="M215.2706 108.0609L563.2706 108.0609L563.2706 108.0609L563.2706 23.10089L563.2706 23.10089L215.2706 23.10089z" /></clipPath><clipPath id="5"><path clip-rule="evenodd" d="M11.9906 829.0094L583.285 829.0094L583.285 829.0094L583.285 11.10077L583.285 11.10077L11.9906 11.10077z" /></clipPath><clipPath id="6"><path clip-rule="evenodd" d="M215.2706 336.7808L563.2706 336.7808L563.2706 336.7808L563.2706 127.0208L563.2706 127.0208L215.2706 127.0208z" /></clipPath><clipPath id="7"><path clip-rule="evenodd" d="M215.2706 336.7808L563.2706 336.7808L563.2706 336.7808L563.2706 127.0208L563.2706 127.0208L215.2706 127.0208z" /></clipPath><clipPath id="8"><path clip-rule="evenodd" d="M215.2706 336.7808L563.2706 336.7808L563.2706 336.7808L563.2706 127.0208L563.2706 127.0208L215.2706 127.0208z" /></clipPath><clipPath id="9"><path clip-rule="evenodd" d="M11.9906 829.0094L583.285 829.0094L583.285 829.0094L583.285 11.10077L583.285 11.10077L11.9906 11.10077z" /></clipPath><clipPath id="10"><path clip-rule="evenodd" d="M215.2706 336.7808L563.2706 336.7808L563.2706 336.7808L563.2706 127.0208L563.2706 127.0208L215.2706 127.0208z" /></clipPath><clipPath id="11"><path clip-rule="evenodd" d="M11.9906 829.0094L583.285 829.0094L583.285 829.0094L583.285 11.10077L583.285 11.10077L11.9906 11.10077z" /></clipPath><clipPath id="12"><path clip-rule="evenodd" d="M271.6706 252.5408L352.7906 252.5408L352.7906 252.5408L352.7906 171.4208L352.7906 171.4208L271.6706 171.4208z" /></clipPath><clipPath id="13"><path clip-rule="evenodd" d="M11.9906 829.0094L583.285 829.0094L583.285 829.0094L583.285 11.10077L583.285 11.10077L11.9906 11.10077z" /></clipPath><clipPath id="14"><path clip-rule="evenodd" d="M209.2706 373.5008L247.6706 373.5008L247.6706 373.5008L247.6706 355.5008L247.6706 355.5008L209.2706 355.5008z" /></clipPath><clipPath id="15"><path clip-rule="evenodd" d="M209.2706 373.5008L247.6706 373.5008L247.6706 373.5008L247.6706 355.5008L247.6706 355.5008L209.2706 355.5008z" /></clipPath><clipPath id="16"><path clip-rule="evenodd" d="M219.8306 373.9808L545.7506 373.9808L545.7506 373.9808L545.7506 356.9408L545.7506 356.9408L219.8306 356.9408z" /></clipPath><clipPath id="17"><path clip-rule="evenodd" d="M219.8306 373.9808L545.7506 373.9808L545.7506 373.9808L545.7506 356.9408L545.7506 356.9408L219.8306 356.9408z" /></clipPath><clipPath id="18"><path clip-rule="evenodd" d="M219.8306 373.9808L545.7506 373.9808L545.7506 373.9808L545.7506 356.9408L545.7506 356.9408L219.8306 356.9408z" /></clipPath><clipPath id="19"><path clip-rule="evenodd" d="M11.9906 829.0094L583.285 829.0094L583.285 829.0094L583.285 11.10077L583.285 11.10077L11.9906 11.10077z" /></clipPath><clipPath id="20"><path clip-rule="evenodd" d="M209.2706 429.1808L247.6706 429.1808L247.6706 429.1808L247.6706 411.1808L247.6706 411.1808L209.2706 411.1808z" /></clipPath><clipPath id="21"><path clip-rule="evenodd" d="M209.2706 429.1808L247.6706 429.1808L247.6706 429.1808L247.6706 411.1808L247.6706 411.1808L209.2706 411.1808z" /></clipPath><clipPath id="22"><path clip-rule="evenodd" d="M219.8306 429.9008L525.3506 429.9008L525.3506 429.9008L525.3506 410.9408L525.3506 410.9408L219.8306 410.9408z" /></clipPath><clipPath id="23"><path clip-rule="evenodd" d="M219.8306 429.9008L525.3506 429.9008L525.3506 429.9008L525.3506 410.9408L525.3506 410.9408L219.8306 410.9408z" /></clipPath><clipPath id="24"><path clip-rule="evenodd" d="M219.8306 429.9008L525.3506 429.9008L525.3506 429.9008L525.3506 410.9408L525.3506 410.9408L219.8306 410.9408z" /></clipPath><clipPath id="25"><path clip-rule="evenodd" d="M11.9906 829.0094L583.285 829.0094L583.285 829.0094L583.285 11.10077L583.285 11.10077L11.9906 11.10077z" /></clipPath><clipPath id="26"><path clip-rule="evenodd" d="M209.2706 466.8608L247.6706 466.8608L247.6706 466.8608L247.6706 448.6208L247.6706 448.6208L209.2706 448.6208z" /></clipPath><clipPath id="27"><path clip-rule="evenodd" d="M209.2706 466.8608L247.6706 466.8608L247.6706 466.8608L247.6706 448.6208L247.6706 448.6208L209.2706 448.6208z" /></clipPath><clipPath id="28"><path clip-rule="evenodd" d="M219.8306 467.3408L525.3506 467.3408L525.3506 467.3408L525.3506 448.6208L525.3506 448.6208L219.8306 448.6208z" /></clipPath><clipPath id="29"><path clip-rule="evenodd" d="M219.8306 467.3408L525.3506 467.3408L525.3506 467.3408L525.3506 448.6208L525.3506 448.6208L219.8306 448.6208z" /></clipPath><clipPath id="30"><path clip-rule="evenodd" d="M11.9906 829.0094L583.285 829.0094L583.285 829.0094L583.285 11.10077L583.285 11.10077L11.9906 11.10077z" /></clipPath><clipPath id="31"><path clip-rule="evenodd" d="M209.2706 504.3008L247.6706 504.3008L247.6706 504.3008L247.6706 486.3008L247.6706 486.3008L209.2706 486.3008z" /></clipPath><clipPath id="32"><path clip-rule="evenodd" d="M209.2706 504.3008L247.6706 504.3008L247.6706 504.3008L247.6706 486.3008L247.6706 486.3008L209.2706 486.3008z" /></clipPath><clipPath id="33"><path clip-rule="evenodd" d="M219.8306 505.0208L525.3506 505.0208L525.3506 505.0208L525.3506 486.0608L525.3506 486.0608L219.8306 486.0608z" /></clipPath><clipPath id="34"><path clip-rule="evenodd" d="M219.8306 505.0208L525.3506 505.0208L525.3506 505.0208L525.3506 486.0608L525.3506 486.0608L219.8306 486.0608z" /></clipPath><clipPath id="35"><path clip-rule="evenodd" d="M11.9906 829.0094L583.285 829.0094L583.285 829.0094L583.285 11.10077L583.285 11.10077L11.9906 11.10077z" /></clipPath><clipPath id="36"><path clip-rule="evenodd" d="M11.99061 11.10083L583.1906 11.10083L583.1906 11.10083L583.1906 829.0208L583.1906 829.0208L11.99061 829.0208zM186.6694 411.1833C 185.5759 411.031 184.4343 411.0906 183.3007 411.3944C 178.7663 412.6094 176.0753 417.2703 177.2903 421.8047C 178.5053 426.3392 183.1662 429.0302 187.7007 427.8151C 192.2351 426.6001 194.9261 421.9392 193.7111 417.4048C 192.7998 414.004 189.9502 411.6401 186.6694 411.1833z" /></clipPath><clipPath id="37"><path clip-rule="evenodd" d="M172 433L199 433L199 433L199 406L199 406L172 406z" /></clipPath><clipPath id="38"><path clip-rule="evenodd" d="M172 433L199 433L199 433L199 406L199 406L172 406z" /></clipPath><clipPath id="39"><path clip-rule="evenodd" d="M0 841L584 841L584 841L584 11L584 11L0 11z" /></clipPath><clipPath id="40"><path clip-rule="evenodd" d="M11.9906 829.0094L583.285 829.0094L583.285 829.0094L583.285 11.10077L583.285 11.10077L11.9906 11.10077z" /></clipPath><clipPath id="41"><path clip-rule="evenodd" d="M11.99061 11.10083L583.1906 11.10083L583.1906 11.10083L583.1906 829.0208L583.1906 829.0208L11.99061 829.0208zM185.6306 538.5008C 180.9914 538.5008 177.2306 542.3153 177.2306 547.0208C 177.2306 551.7263 180.9914 555.5408 185.6306 555.5408C 190.2698 555.5408 194.0306 551.7263 194.0306 547.0208C 194.0306 542.3153 190.2698 538.5008 185.6306 538.5008z" /></clipPath><clipPath id="42"><path clip-rule="evenodd" d="M172 561L199 561L199 561L199 533L199 533L172 533z" /></clipPath><clipPath id="43"><path clip-rule="evenodd" d="M172 561L199 561L199 561L199 533L199 533L172 533z" /></clipPath><clipPath id="44"><path clip-rule="evenodd" d="M0 841L584 841L584 841L584 11L584 11L0 11z" /></clipPath><clipPath id="45"><path clip-rule="evenodd" d="M11.9906 829.0094L583.285 829.0094L583.285 829.0094L583.285 11.10077L583.285 11.10077L11.9906 11.10077z" /></clipPath><clipPath id="46"><path clip-rule="evenodd" d="M23.5106 433.2608L164.3906 433.2608L164.3906 433.2608L164.3906 410.7008L164.3906 410.7008L23.5106 410.7008z" /></clipPath><clipPath id="47"><path clip-rule="evenodd" d="M23.7506 433.2608L164.3906 433.2608L164.3906 433.2608L164.3906 410.7008L164.3906 410.7008L23.7506 410.7008z" /></clipPath><clipPath id="48"><path clip-rule="evenodd" d="M11.9906 829.0094L583.285 829.0094L583.285 829.0094L583.285 11.10077L583.285 11.10077L11.9906 11.10077z" /></clipPath><clipPath id="49"><path clip-rule="evenodd" d="M22.7906 559.5008L163.9106 559.5008L163.9106 559.5008L163.9106 536.9408L163.9106 536.9408L22.7906 536.9408z" /></clipPath><clipPath id="50"><path clip-rule="evenodd" d="M23.0306 559.5008L163.9106 559.5008L163.9106 559.5008L163.9106 536.9408L163.9106 536.9408L23.0306 536.9408z" /></clipPath><clipPath id="51"><path clip-rule="evenodd" d="M11.9906 829.0094L583.285 829.0094L583.285 829.0094L583.285 11.10077L583.285 11.10077L11.9906 11.10077z" /></clipPath><clipPath id="52"><path clip-rule="evenodd" d="M419.5106 815.1008L583.285 815.1008L583.285 815.1008L583.285 736.6208L583.285 736.6208L419.5106 736.6208z" /></clipPath><clipPath id="53"><path clip-rule="evenodd" d="M11.9906 829.0094L583.285 829.0094L583.285 829.0094L583.285 11.10077L583.285 11.10077L11.9906 11.10077z" /></clipPath><clipPath id="54"><path clip-rule="evenodd" d="M419.5106 815.1008L583.285 815.1008L583.285 815.1008L583.285 736.6208L583.285 736.6208L419.5106 736.6208z" /></clipPath><clipPath id="55"><path clip-rule="evenodd" d="M11.9906 829.0094L583.285 829.0094L583.285 829.0094L583.285 11.10077L583.285 11.10077L11.9906 11.10077z" /></clipPath><clipPath id="56"><path clip-rule="evenodd" d="M419.5106 815.1008L583.285 815.1008L583.285 815.1008L583.285 736.6208L583.285 736.6208L419.5106 736.6208z" /></clipPath></defs><g transform="matrix(1.333333 0 0 1.333333 0 0)"><g clip-path="url(#1)"><g clip-path="url(#2)"></g><g clip-path="url(#3)"><g transform="matrix(0.24 0 0 0.24 215.2706 23.10089)"><g transform="matrix(1 0 0 1 0 0)"><image x="0" y="0" xlink:href="img_30.png" width="1450" height="354" /></g></g></g><g clip-path="url(#4)"></g><g clip-path="url(#5)"></g><g clip-path="url(#6)"><g transform="matrix(0.24 0 0 0.24 215.2706 127.0208)"><g transform="matrix(1 0 0 1 0 0)"><image x="0" y="0" xlink:href="img_31.png" width="1450" height="874" /></g></g></g><g clip-path="url(#7)"></g><g clip-path="url(#8)"></g><g clip-path="url(#9)"></g><g clip-path="url(#10)"></g><g clip-path="url(#11)"></g><g clip-path="url(#12)"><g transform="matrix(0.24 0 0 0.24 271.6706 171.4208)"><g transform="matrix(1 0 0 1 0 0)"><image x="0" y="0" xlink:href="img_32.png" width="338" height="338" /></g></g></g><g clip-path="url(#13)"><path transform="matrix(1 0 0 -1 0 841)" d="M218.6306 485.9792L210.0209 485.9792L207.3506 476.3792L210.0209 466.7792L218.6306 466.7792z" stroke="none" fill="#9E3745" fill-rule="nonzero" /></g><g clip-path="url(#14)"><g transform="matrix(0.24 0 0 0.24 209.2706 355.5008)"><g transform="matrix(1 0 0 1 0 0)"><image x="0" y="0" xlink:href="img_27.png" width="160" height="75" /></g></g></g><g clip-path="url(#15)"></g><g clip-path="url(#16)"><g transform="matrix(0.24 0 0 0.24 219.8306 356.9408)"><g transform="matrix(1 0 0 1 0 0)"><image x="0" y="0" xlink:href="img_33.png" width="1358" height="71" /></g></g></g><g clip-path="url(#17)"></g><g clip-path="url(#18)"></g><g clip-path="url(#19)"><path transform="matrix(1 0 0 -1 0 841)" d="M218.6306 430.2992L210.0209 430.2992L207.3506 420.8192L210.0209 411.3392L218.6306 411.3392z" stroke="none" fill="#9D3644" fill-rule="nonzero" /></g><g clip-path="url(#20)"><g transform="matrix(0.24 0 0 0.24 209.2706 411.1808)"><g transform="matrix(1 0 0 1 0 0)"><image x="0" y="0" xlink:href="img_27.png" width="160" height="75" /></g></g></g><g clip-path="url(#21)"></g><g clip-path="url(#22)"><g transform="matrix(0.24 0 0 0.24 219.8306 410.9408)"><g transform="matrix(1 0 0 1 0 0)"><image x="0" y="0" xlink:href="img_34.png" width="1273" height="79" /></g></g></g><g clip-path="url(#23)"></g><g clip-path="url(#24)"></g><g clip-path="url(#25)"><path transform="matrix(1 0 0 -1 0 841)" d="M218.6306 392.8592L210.0209 392.8592L207.3506 383.2592L210.0209 373.6592L218.6306 373.6592z" stroke="none" fill="#9D3644" fill-rule="nonzero" /></g><g clip-path="url(#26)"><g transform="matrix(0.24 0 0 0.24 209.2706 448.6208)"><g transform="matrix(1 0 0 1 0 0)"><image x="0" y="0" xlink:href="img_06.png" width="160" height="76" /></g></g></g><g clip-path="url(#27)"></g><g clip-path="url(#28)"><g transform="matrix(0.24 0 0 0.24 219.8306 448.6208)"><g transform="matrix(1 0 0 1 0 0)"><image x="0" y="0" xlink:href="img_35.png" width="1273" height="78" /></g></g></g><g clip-path="url(#29)"></g><g clip-path="url(#30)"><path transform="matrix(1 0 0 -1 0 841)" d="M218.6306 355.1792L210.0209 355.1792L207.3506 345.6992L210.0209 336.2192L218.6306 336.2192z" stroke="none" fill="#9D3644" fill-rule="nonzero" /></g><g clip-path="url(#31)"><g transform="matrix(0.24 0 0 0.24 209.2706 486.3008)"><g transform="matrix(1 0 0 1 0 0)"><image x="0" y="0" xlink:href="img_27.png" width="160" height="75" /></g></g></g><g clip-path="url(#32)"></g><g clip-path="url(#33)"><g transform="matrix(0.24 0 0 0.24 219.8306 486.0608)"><g transform="matrix(1 0 0 1 0 0)"><image x="0" y="0" xlink:href="img_34.png" width="1273" height="79" /></g></g></g><g clip-path="url(#34)"></g><g clip-path="url(#35)"><path transform="matrix(1 0 0 -1 0 841)" d="M186.7106 841.7792L186.1106 -0.9208374" stroke="#A6A6A6" stroke-width="2.16" fill="none" /></g><g clip-path="url(#36)"><g clip-path="url(#37)"><g><g clip-path="url(#38)"><g clip-path="url(#39)"><g transform="matrix(0.08 0 0 0.08 172.3106 406.3808)"><g transform="matrix(1 0 0 1 0 0)"><image x="0" y="0" xlink:href="img_36.png" width="330" height="330" /></g></g></g></g></g></g></g><g clip-path="url(#40)"><path transform="matrix(1 0 0 -1 0 841)" d="M177.2903 419.1953C 176.0753 423.7297 178.7663 428.3906 183.3007 429.6056C 187.8352 430.8206 192.496 428.1297 193.711 423.5952C 194.9261 419.0607 192.2351 414.3999 187.7006 413.1849C 183.1662 411.9698 178.5053 414.6608 177.2903 419.1953z" stroke="none" fill="#9E3745" fill-rule="nonzero" /><path transform="matrix(1 0 0 -1 0 841)" d="M177.2903 419.1953C 176.0753 423.7297 178.7662 428.3906 183.3007 429.6056C 187.8351 430.8206 192.496 428.1297 193.711 423.5952C 194.926 419.0607 192.2351 414.3999 187.7006 413.1849C 183.1661 411.9698 178.5053 414.6608 177.2903 419.1953z" stroke="#D9D9D9" stroke-width="4.5" fill="none" /></g><g clip-path="url(#41)"><g clip-path="url(#42)"><g><g clip-path="url(#43)"><g clip-path="url(#44)"><g transform="matrix(0.08000001 0 0 0.08 172.5506 533.8208)"><g transform="matrix(1 0 0 1 0 0)"><image x="0" y="0" xlink:href="img_37.png" width="327" height="330" /></g></g></g></g></g></g></g><g clip-path="url(#45)"><path transform="matrix(1 0 0 -1 0 841)" d="M177.2306 293.9792C 177.2306 298.6846 180.9914 302.4992 185.6306 302.4992C 190.2698 302.4992 194.0306 298.6846 194.0306 293.9792C 194.0306 289.2737 190.2698 285.4592 185.6306 285.4592C 180.9914 285.4592 177.2306 289.2737 177.2306 293.9792z" stroke="none" fill="#9D3644" fill-rule="nonzero" /><path transform="matrix(1 0 0 -1 0 841)" d="M177.2306 293.9792C 177.2306 298.6847 180.9914 302.4992 185.6306 302.4992C 190.2698 302.4992 194.0306 298.6847 194.0306 293.9792C 194.0306 289.2737 190.2698 285.4592 185.6306 285.4592C 180.9914 285.4592 177.2306 289.2737 177.2306 293.9792z" stroke="#D9D9D9" stroke-width="4.56" fill="none" /><path transform="matrix(1 0 0 -1 0 841)" d="M304.2045 296.3199C 305.4297 296.3199 306.4507 297.3464 306.4507 298.5782C 306.4507 299.9127 305.4297 300.9392 304.2045 300.9392C 302.9793 300.9392 301.8562 299.9127 301.8562 298.5782C 301.8562 297.3464 302.9793 296.3199 304.2045 296.3199zM302.673 287.3893C 302.673 288.6211 303.694 289.6476 304.9192 289.6476C 306.1444 289.6476 307.1654 288.6211 307.1654 287.3893C 307.1654 286.1575 306.1444 285.131 304.9192 285.131C 303.694 285.131 302.673 286.1575 302.673 287.3893zM308.3906 287.3893C 308.3906 289.3397 306.8591 290.8794 304.9192 290.8794C 302.9793 290.8794 301.4478 289.3397 301.4478 287.3893C 301.4478 285.4389 302.9793 283.8992 304.9192 283.8992C 306.8591 283.8992 308.3906 285.4389 308.3906 287.3893zM293.382 289.6476C 294.6071 289.6476 295.7303 288.6211 295.7303 287.3893C 295.7303 286.1575 294.7093 285.131 293.382 285.131C 292.1568 285.131 291.1358 286.1575 291.1358 287.3893C 291.1358 288.6211 292.1568 289.6476 293.382 289.6476zM293.382 290.8794C 291.4421 290.8794 289.9106 289.3397 289.9106 287.3893C 289.9106 285.4389 291.4421 283.8992 293.382 283.8992C 295.3219 283.8992 296.9554 285.4389 296.9554 287.3893C 296.9554 289.3397 295.3219 290.8794 293.382 290.8794zM298.4869 292.7271C 298.5891 292.6245 298.6911 292.5218 298.7932 292.5218C 299.4058 292.0086 299.9163 291.4953 300.4268 290.9821C 300.631 290.8794 300.7331 290.6741 300.7331 290.3662C 300.631 289.237 300.4268 288.1078 300.3247 286.9787C 300.2226 286.3628 300.1205 285.7469 300.0184 285.131C 300.0184 284.823 299.7121 284.5151 299.4058 284.5151C 299.0995 284.5151 298.8953 284.7204 298.7932 285.131C 298.7932 285.7469 298.6911 286.3628 298.5891 286.9787C 298.5891 287.5946 298.4869 288.2105 298.3848 288.929C 298.3848 289.0317 298.3848 289.1344 298.3848 289.3397C 298.3848 289.3397 298.2827 289.4423 298.1806 289.545C 297.2617 290.1609 296.2408 290.8794 295.3219 291.598C 295.0156 291.8033 294.8114 291.9059 294.7093 292.2139C 294.403 292.7271 294.403 293.2404 294.7093 293.7536C 294.9135 294.1642 295.2198 294.4722 295.5261 294.7802C 296.3428 295.704 297.2617 296.4225 298.2827 296.9358C 298.9974 297.3464 299.61 297.5517 300.3247 297.757C 300.5289 297.757 300.631 297.757 300.7331 297.757C 301.0394 297.757 301.1415 297.6544 301.3457 297.4491C 302.2646 296.3199 303.1835 295.2934 304.1024 294.1642C 304.2045 294.0616 304.2045 294.0616 304.3066 294.0616C 305.0213 294.0616 305.8381 294.0616 306.5528 294.0616C 306.8591 294.0616 307.0633 293.9589 307.1654 293.651C 307.2675 293.2404 306.9612 292.9324 306.6549 292.8298C 306.5528 292.8298 306.5528 292.8298 306.5528 292.8298C 305.6339 292.8298 304.8171 292.8298 304.0003 292.8298C 303.7961 292.8298 303.5919 292.9324 303.4898 293.0351C 302.8772 293.5483 302.2646 293.9589 301.652 294.4722C 301.652 294.4722 301.5499 294.5748 301.5499 294.4722C 300.5289 294.0616 299.61 293.5483 298.6911 292.8298C 298.5891 292.8298 298.5891 292.8298 298.4869 292.7271z" stroke="none" fill="#414141" fill-rule="evenodd" /><path transform="matrix(1 0 0 -1 0 841)" d="M284.6306 292.6592C 284.6306 300.5458 291.024 306.9392 298.9106 306.9392C 306.7972 306.9392 313.1906 300.5458 313.1906 292.6592C 313.1906 284.7726 306.7972 278.3792 298.9106 278.3792C 291.024 278.3792 284.6306 284.7726 284.6306 292.6592z" stroke="#9D3644" stroke-width="1.44" fill="none" /><path transform="matrix(1 0 0 -1 0 841)" d="M243.0449 298.9225C 243.0449 299.5565 242.5175 299.9792 241.8846 299.9792C 241.1463 299.9792 240.3024 299.9792 239.5641 299.9792C 239.1422 299.9792 238.8258 299.8735 238.6148 299.5565C 238.4038 299.3452 238.4038 299.1338 238.4038 298.8168C 239.986 298.8168 241.4627 298.8168 243.0449 298.8168C 243.0449 298.8168 243.0449 298.9225 243.0449 298.9225zM235.9779 289.412C 234.7121 289.412 233.6573 290.4688 233.6573 291.7368C 233.6573 293.1105 234.7121 294.1672 235.9779 294.1672C 237.3491 294.0616 238.4038 293.0049 238.4038 291.7368C 238.4038 290.4688 237.3491 289.412 235.9779 289.412zM232.4971 291.7368C 232.4971 289.8347 234.0793 288.2496 235.9779 288.2496C 237.9819 288.2496 239.5641 289.8347 239.5641 291.7368C 239.5641 293.7446 237.9819 295.3296 235.9779 295.3296C 234.0793 295.3296 232.4971 293.7446 232.4971 291.7368zM227.8561 294.0616C 229.2273 294.0616 230.493 294.0616 231.8642 294.0616C 231.8642 294.0616 231.9697 294.1672 231.9697 294.1672C 232.3916 294.8013 232.8135 295.3296 233.4464 295.6466C 234.1847 296.175 235.0286 296.492 235.8724 296.492C 236.6107 296.492 237.2436 296.3864 237.8764 296.0693C 238.8258 295.6466 239.5641 295.0126 239.986 294.1672C 240.0915 294.1672 240.0915 294.0616 240.197 294.0616C 241.4627 294.0616 242.8339 294.0616 244.2051 294.0616C 244.2051 294.0616 244.2051 294.0616 244.3106 294.0616C 244.3106 294.1672 244.3106 294.1672 244.3106 294.1672C 244.3106 294.907 244.3106 295.6466 244.3106 296.3864C 244.3106 297.126 243.7832 297.6544 243.0449 297.6544C 238.2984 297.6544 233.6573 297.6544 228.9108 297.6544C 228.8054 297.6544 228.6999 297.6544 228.4889 297.5487C 228.067 297.4431 227.7506 297.0204 227.7506 296.3864C 227.7506 295.6466 227.7506 294.907 227.7506 294.1672C 227.7506 294.1672 227.7506 294.1672 227.7506 294.0616C 227.7506 294.0616 227.8561 294.0616 227.8561 294.0616zM240.6189 292.8992C 241.7791 292.8992 243.0449 292.8992 244.3106 292.8992C 244.3106 292.8992 244.3106 292.8992 244.3106 292.7935C 244.3106 290.8914 244.3106 288.9893 244.3106 287.0872C 244.3106 286.3475 243.7832 285.8192 243.0449 285.8192C 238.2984 285.8192 233.6573 285.8192 229.0163 285.8192C 228.278 285.8192 227.7506 286.3475 227.7506 287.0872C 227.7506 288.6723 227.7506 290.1517 227.7506 291.7368C 227.7506 292.0538 227.7506 292.4765 227.7506 292.7935C 227.7506 292.7935 227.7506 292.8992 227.7506 292.8992C 229.0163 292.8992 230.1766 292.8992 231.4423 292.8992C 231.0204 291.1028 231.4423 289.5177 232.8135 288.2496C 233.7628 287.2986 235.0286 286.9816 236.3998 287.0872C 237.771 287.1929 239.0367 287.8269 239.8805 288.9893C 240.7243 290.1517 240.9353 291.5255 240.6189 292.8992z" stroke="none" fill="#414141" fill-rule="evenodd" /><path transform="matrix(1 0 0 -1 0 841)" d="M221.5106 292.8992C 221.5106 300.7858 227.9577 307.1792 235.9106 307.1792C 243.8635 307.1792 250.3106 300.7858 250.3106 292.8992C 250.3106 285.0126 243.8635 278.6192 235.9106 278.6192C 227.9577 278.6192 221.5106 285.0126 221.5106 292.8992z" stroke="#9D3644" stroke-width="1.44" fill="none" /><path transform="matrix(1 0 0 -1 0 841)" d="M23.0306 432.2192L162.0819 432.2192L167.9906 419.7392L162.0819 407.2592L23.0306 407.2592z" stroke="none" fill="#9D3644" fill-rule="nonzero" /></g><g clip-path="url(#46)"><g transform="matrix(0.24 0 0 0.24 23.5106 410.7008)"><g transform="matrix(1 0 0 1 0 0)"><image x="0" y="0" xlink:href="img_38.png" width="587" height="94" /></g></g></g><g clip-path="url(#47)"></g><g clip-path="url(#48)"><path transform="matrix(1 0 0 -1 0 841)" d="M38.33037 419.014C 38.33037 419.014 38.33037 419.014 38.33037 419.014M38.33037 419.014C 32.06847 421.08 32.06847 421.08 32.06847 421.08C 32.06847 419.5305 32.06847 419.5305 32.06847 419.5305C 32.41159 419.1862 32.58315 418.7557 32.58315 418.3253C 32.58315 417.8948 32.41159 417.4644 32.15425 417.2061C 32.24003 416.9479 32.41159 416.6896 32.58315 416.6035C 36.27167 414.6235 41.24688 414.6235 45.27851 416.8618C 45.62163 417.034 45.79319 417.3783 45.79319 417.7227C 45.79319 421.1661 45.79319 421.1661 45.79319 421.1661C 39.44551 419.014 39.44551 419.014 39.44551 419.014C 38.75927 418.7557 38.93083 418.7557 38.33037 419.014C 38.33037 419.014 38.33037 419.014 38.33037 419.014zM49.22437 424.5235C 39.35973 427.967 39.35973 427.967 39.35973 427.967C 38.75927 428.1392 38.84505 428.1392 38.24459 427.967C 28.29418 424.5235 28.29418 424.5235 28.29418 424.5235C 27.60794 424.3514 27.60794 423.9209 28.29418 423.7487C 30.61022 422.8879 30.61022 422.8879 30.61022 422.8879C 29.58087 421.8548 29.49509 420.8218 29.49509 419.6166C 29.06619 419.4444 28.80885 419.014 28.80885 418.5835C 28.80885 418.1531 29.06619 417.8087 29.40931 417.6366C 29.23775 416.3453 28.72307 414.9679 27.3506 413.2462C 28.03684 412.7296 28.37996 412.5575 28.98041 412.2992C 30.95334 413.1601 30.696 415.4844 30.52444 417.7227C 30.78178 417.8948 30.95334 418.2392 30.95334 418.5835C 30.95334 419.014 30.78178 419.3583 30.43866 419.5305C 30.52444 420.7357 30.78178 421.7688 31.63957 422.4575C 31.63957 422.5435 31.72535 422.5435 31.72535 422.5435C 38.58771 425.2983 38.58771 425.2983 38.58771 425.2983C 38.84505 425.3844 39.10239 425.2983 39.18817 425.0401C 39.18817 425.0401 39.18817 425.0401 39.18817 425.0401C 39.27395 424.7818 39.18817 424.4374 38.93083 424.3514C 33.18361 422.027 33.18361 422.027 33.18361 422.027C 38.33037 420.3053 38.33037 420.3053 38.33037 420.3053C 38.93083 420.047 38.84505 420.047 39.44551 420.3053C 49.31015 423.6627 49.31015 423.6627 49.31015 423.6627C 49.9106 423.9209 49.9106 424.2653 49.22437 424.5235C 49.22437 424.5235 49.22437 424.5235 49.22437 424.5235z" stroke="none" fill="#C3C4C0" fill-rule="evenodd" /><path transform="matrix(1 0 0 -1 0 841)" d="M53.1506 430.8992L53.15068 409.8992" stroke="#E2CAC3" stroke-width="2.16" fill="none" /><path transform="matrix(1 0 0 -1 0 841)" d="M22.5506 305.9792L161.3618 305.9792L167.2706 293.4991L161.3618 281.0192L22.5506 281.0192z" stroke="none" fill="#9D3644" fill-rule="nonzero" /></g><g clip-path="url(#49)"><g transform="matrix(0.24 0 0 0.24 22.7906 536.9408)"><g transform="matrix(1 0 0 1 0 0)"><image x="0" y="0" xlink:href="img_39.png" width="588" height="94" /></g></g></g><g clip-path="url(#50)"></g><g clip-path="url(#51)"><path transform="matrix(1 0 0 -1 0 841)" d="M52.4306 303.9392L52.43068 282.9392" stroke="#E2CAC3" stroke-width="2.16" fill="none" /><path transform="matrix(1 0 0 -1 0 841)" d="M35.34874 295.8531C 35.34874 295.8531 35.34874 295.8531 35.34874 295.8531M35.34874 295.8531C 35.34874 296.5539 36.18595 297.1145 37.30223 297.1145C 38.41851 297.1145 39.25572 296.5539 39.25572 295.8531C 39.25572 295.2924 38.41851 294.7318 37.30223 294.7318C 36.18595 294.7318 35.34874 295.2924 35.34874 295.8531zM32.27897 294.7318C 31.16269 294.7318 30.32548 295.2924 30.32548 295.8531C 30.32548 296.5539 31.16269 297.1145 32.27897 297.1145C 33.39525 297.1145 34.23246 296.5539 34.23246 295.8531C 34.23246 295.2924 33.39525 294.7318 32.27897 294.7318zM39.53479 290.3868C 39.67432 290.527 40.09293 290.8073 40.37199 291.2278C 40.7906 291.7885 40.7906 293.0499 40.7906 294.031C 40.7906 298.9366 38.13944 301.1792 34.7906 301.1792C 31.44176 301.1792 28.7906 298.9366 28.7906 294.031C 28.7906 289.2656 31.44176 283.6592 34.7906 283.6592C 35.20921 283.6592 35.90688 283.7993 35.90688 284.2198C 36.18595 286.4624 37.30223 288.2845 39.53479 290.3868zM39.53479 286.3222C 39.67432 286.182 39.95339 286.182 40.09293 286.3222C 40.09293 286.3222 40.37199 286.6025 40.65107 286.8828C 43.5813 289.9664 46.7906 294.4515 46.23246 295.0121C 45.67432 295.7129 41.48827 292.2089 38.69757 289.1254C 38.27897 288.8451 38.13944 288.5648 38.13944 288.5648C 37.9999 288.2845 37.9999 288.0041 38.13944 287.864C 39.53479 286.3222 39.53479 286.3222 39.53479 286.3222zM37.9999 287.4435C 37.72083 287.7238 37.44176 287.7238 37.30223 287.4435C 37.16269 287.3033 37.30223 287.023 37.44176 286.8828C 38.55804 285.4813 38.55804 285.4813 38.55804 285.4813C 38.83711 285.3411 39.11618 285.3411 39.25572 285.4813C 39.25572 285.6214 39.39525 285.9017 39.25572 286.182C 37.9999 287.4435 37.9999 287.4435 37.9999 287.4435zM37.16269 286.182C 37.02316 286.4624 36.88363 286.3222 36.74409 286.182C 36.74409 286.182 36.04641 284.36 36.18595 284.0797C 36.46502 283.9395 37.9999 284.6403 37.9999 284.6403C 38.27897 284.7805 38.27897 285.0608 38.13944 285.2009C 37.16269 286.182 37.16269 286.182 37.16269 286.182z" stroke="none" fill="#C3C3C0" fill-rule="evenodd" /><path transform="matrix(1 0 0 -1 0 841)" d="M359.3857 285.0891C 355.8803 281.7176 350.0321 281.5678 346.3235 284.7546C 342.6149 287.9413 342.4502 293.2578 345.9556 296.6293C 349.461 300.0007 355.3091 300.1505 359.0177 296.9638C 359.5077 296.5428 359.9455 296.0742 360.3233 295.5667L360.3233 295.5667L352.6706 290.8592z" stroke="none" fill="#404040" fill-rule="nonzero" /><path transform="matrix(1 0 0 -1 0 841)" d="M338.6306 291.6992C 338.6306 299.5858 345.024 305.9792 352.9106 305.9792C 360.7972 305.9792 367.1906 299.5858 367.1906 291.6992C 367.1906 283.8126 360.7972 277.4192 352.9106 277.4192C 345.024 277.4192 338.6306 283.8126 338.6306 291.6992z" stroke="#9D3644" stroke-width="1.44" fill="none" /></g><g clip-path="url(#52)"><g transform="matrix(0.24 0 0 0.24 419.5106 736.6208)"><g transform="matrix(1 0 0 1 0 0)"><image x="0" y="0" xlink:href="img_40.png" width="711" height="327" /></g></g></g><g clip-path="url(#53)"><path transform="matrix(1 0 0 -1 0 841)" d="M426.7106 90.93919L457.9106 90.93919L457.9106 90.93919L457.9106 102.2192L457.9106 102.2192L426.7106 102.2192z" stroke="none" fill="#FFFFFF" fill-rule="evenodd" /></g><g clip-path="url(#54)"></g><g clip-path="url(#55)"><path transform="matrix(1 0 0 -1 0 841)" d="M426.7106 59.73919L575.7506 59.73919L575.7506 59.73919L575.7506 71.01919L575.7506 71.01919L426.7106 71.01919z" stroke="none" fill="#FFFFFE" fill-rule="evenodd" /><path transform="matrix(1 0 0 -1 0 841)" d="M426.7106 28.53919L519.8306 28.53919L519.8306 28.53919L519.8306 39.81919L519.8306 39.81919L426.7106 39.81919z" stroke="none" fill="#FFFFFE" fill-rule="evenodd" /></g><g clip-path="url(#56)"></g></g></g></svg>