<svg xmlns="http://www.w3.org/2000/svg" xmlns:xlink="http://www.w3.org/1999/xlink" id="body_2" preserveAspectRatio="xMinYMin meet" viewBox="0 0 793 1121"><defs><clipPath id="1"><path clip-rule="evenodd" d="M0 841L0 -0.8897705L0 -0.8897705L595.2756 -0.8897705L595.2756 -0.8897705L595.2756 841L595.2756 841L0 841z" /></clipPath><clipPath id="2"><path clip-rule="evenodd" d="M11.9906 829.0094L583.285 829.0094L583.285 829.0094L583.285 11.10077L583.285 11.10077L11.9906 11.10077z" /></clipPath><clipPath id="3"><path clip-rule="evenodd" d="M215.2706 123.4208L563.2706 123.4208L563.2706 123.4208L563.2706 23.10077L563.2706 23.10077L215.2706 23.10077z" /></clipPath><clipPath id="4"><path clip-rule="evenodd" d="M215.2706 123.4208L563.2706 123.4208L563.2706 123.4208L563.2706 23.10077L563.2706 23.10077L215.2706 23.10077z" /></clipPath><clipPath id="5"><path clip-rule="evenodd" d="M11.9906 829.0094L583.285 829.0094L583.285 829.0094L583.285 11.10077L583.285 11.10077L11.9906 11.10077z" /></clipPath><clipPath id="6"><path clip-rule="evenodd" d="M215.2706 406.6208L563.2706 406.6208L563.2706 406.6208L563.2706 143.1008L563.2706 143.1008L215.2706 143.1008z" /></clipPath><clipPath id="7"><path clip-rule="evenodd" d="M215.2706 406.6208L563.2706 406.6208L563.2706 406.6208L563.2706 143.1008L563.2706 143.1008L215.2706 143.1008z" /></clipPath><clipPath id="8"><path clip-rule="evenodd" d="M215.2706 406.6208L563.2706 406.6208L563.2706 406.6208L563.2706 143.1008L563.2706 143.1008L215.2706 143.1008z" /></clipPath><clipPath id="9"><path clip-rule="evenodd" d="M11.9906 829.0094L583.285 829.0094L583.285 829.0094L583.285 11.10077L583.285 11.10077L11.9906 11.10077z" /></clipPath><clipPath id="10"><path clip-rule="evenodd" d="M268.7906 284.7009L350.8706 284.7009L350.8706 284.7009L350.8706 202.6209L350.8706 202.6209L268.7906 202.6209z" /></clipPath><clipPath id="11"><path clip-rule="evenodd" d="M11.9906 829.0094L583.285 829.0094L583.285 829.0094L583.285 11.10077L583.285 11.10077L11.9906 11.10077z" /></clipPath><clipPath id="12"><path clip-rule="evenodd" d="M215.2706 406.6208L563.2706 406.6208L563.2706 406.6208L563.2706 143.1008L563.2706 143.1008L215.2706 143.1008z" /></clipPath><clipPath id="13"><path clip-rule="evenodd" d="M215.2706 406.6208L563.2706 406.6208L563.2706 406.6208L563.2706 143.1008L563.2706 143.1008L215.2706 143.1008z" /></clipPath><clipPath id="14"><path clip-rule="evenodd" d="M215.2706 652.1408L563.2706 652.1408L563.2706 652.1408L563.2706 407.3408L563.2706 407.3408L215.2706 407.3408z" /></clipPath><clipPath id="15"><path clip-rule="evenodd" d="M215.2706 652.1408L563.2706 652.1408L563.2706 652.1408L563.2706 407.3408L563.2706 407.3408L215.2706 407.3408z" /></clipPath><clipPath id="16"><path clip-rule="evenodd" d="M215.2706 652.1408L563.2706 652.1408L563.2706 652.1408L563.2706 407.3408L563.2706 407.3408L215.2706 407.3408z" /></clipPath><clipPath id="17"><path clip-rule="evenodd" d="M11.9906 829.0094L583.285 829.0094L583.285 829.0094L583.285 11.10077L583.285 11.10077L11.9906 11.10077z" /></clipPath><clipPath id="18"><path clip-rule="evenodd" d="M273.8306 562.6208L367.1906 562.6208L367.1906 562.6208L367.1906 469.0208L367.1906 469.0208L273.8306 469.0208z" /></clipPath><clipPath id="19"><path clip-rule="evenodd" d="M11.9906 829.0094L583.285 829.0094L583.285 829.0094L583.285 11.10077L583.285 11.10077L11.9906 11.10077z" /></clipPath><clipPath id="20"><path clip-rule="evenodd" d="M209.2706 692.7008L247.6706 692.7008L247.6706 692.7008L247.6706 674.7008L247.6706 674.7008L209.2706 674.7008z" /></clipPath><clipPath id="21"><path clip-rule="evenodd" d="M209.2706 692.7008L247.6706 692.7008L247.6706 692.7008L247.6706 674.7008L247.6706 674.7008L209.2706 674.7008z" /></clipPath><clipPath id="22"><path clip-rule="evenodd" d="M219.8306 691.9808L572.8706 691.9808L572.8706 691.9808L572.8706 671.3408L572.8706 671.3408L219.8306 671.3408z" /></clipPath><clipPath id="23"><path clip-rule="evenodd" d="M219.8306 691.9808L572.6306 691.9808L572.6306 691.9808L572.6306 671.3408L572.6306 671.3408L219.8306 671.3408z" /></clipPath><clipPath id="24"><path clip-rule="evenodd" d="M219.8306 691.9808L572.6306 691.9808L572.6306 691.9808L572.6306 671.3408L572.6306 671.3408L219.8306 671.3408z" /></clipPath><clipPath id="25"><path clip-rule="evenodd" d="M215.2706 804.7808L563.2706 804.7808L563.2706 804.7808L563.2706 712.1408L563.2706 712.1408L215.2706 712.1408z" /></clipPath><clipPath id="26"><path clip-rule="evenodd" d="M215.2706 804.7808L563.2706 804.7808L563.2706 804.7808L563.2706 712.1408L563.2706 712.1408L215.2706 712.1408z" /></clipPath><clipPath id="27"><path clip-rule="evenodd" d="M215.2706 804.7808L563.2706 804.7808L563.2706 804.7808L563.2706 712.1408L563.2706 712.1408L215.2706 712.1408z" /></clipPath><clipPath id="28"><path clip-rule="evenodd" d="M11.9906 829.0094L583.285 829.0094L583.285 829.0094L583.285 11.10077L583.285 11.10077L11.9906 11.10077z" /></clipPath><clipPath id="29"><path clip-rule="evenodd" d="M215.2706 804.7808L563.2706 804.7808L563.2706 804.7808L563.2706 712.1408L563.2706 712.1408L215.2706 712.1408z" /></clipPath><clipPath id="30"><path clip-rule="evenodd" d="M11.9906 829.0094L583.285 829.0094L583.285 829.0094L583.285 11.10077L583.285 11.10077L11.9906 11.10077z" /></clipPath></defs><g transform="matrix(1.333333 0 0 1.333333 0 0)"><g clip-path="url(#1)"><g clip-path="url(#2)"></g><g clip-path="url(#3)"><g transform="matrix(0.24 0 0 0.24 215.2706 23.10077)"><g transform="matrix(1 0 0 1 0 0)"><image x="0" y="0" xlink:href="img_22.png" width="1450" height="418" /></g></g></g><g clip-path="url(#4)"></g><g clip-path="url(#5)"></g><g clip-path="url(#6)"><g transform="matrix(0.24 0 0 0.24 215.2706 143.1008)"><g transform="matrix(1 0 0 1 0 0)"><image x="0" y="0" xlink:href="img_23.png" width="1450" height="1098" /></g></g></g><g clip-path="url(#7)"></g><g clip-path="url(#8)"></g><g clip-path="url(#9)"><path transform="matrix(1 0 0 -1 0 841)" d="M270.4706 643.8992L414.4706 643.8992L414.4706 643.8992L414.4706 644.6191L414.4706 644.6191L270.4706 644.6191z" stroke="none" fill="#0562C0" fill-rule="evenodd" /></g><g clip-path="url(#10)"><g transform="matrix(0.24 0 0 0.24 268.7906 202.6209)"><g transform="matrix(1 0 0 1 0 0)"><image x="0" y="0" xlink:href="img_24.png" width="342" height="342" /></g></g></g><g clip-path="url(#11)"></g><g clip-path="url(#12)"></g><g clip-path="url(#13)"></g><g clip-path="url(#14)"><g transform="matrix(0.24 0 0 0.24 215.2706 407.3408)"><g transform="matrix(1 0 0 1 0 0)"><image x="0" y="0" xlink:href="img_25.png" width="1450" height="1020" /></g></g></g><g clip-path="url(#15)"></g><g clip-path="url(#16)"></g><g clip-path="url(#17)"></g><g clip-path="url(#18)"><g transform="matrix(0.24 0 0 0.24 273.8306 469.0208)"><g transform="matrix(1 0 0 1 0 0)"><image x="0" y="0" xlink:href="img_26.png" width="389" height="390" /></g></g></g><g clip-path="url(#19)"><path transform="matrix(1 0 0 -1 0 841)" d="M218.6306 166.7792L210.0209 166.7792L207.3506 157.2992L210.0209 147.8192L218.6306 147.8192z" stroke="none" fill="#9D3644" fill-rule="nonzero" /></g><g clip-path="url(#20)"><g transform="matrix(0.24 0 0 0.24 209.2706 674.7008)"><g transform="matrix(1 0 0 1 0 0)"><image x="0" y="0" xlink:href="img_27.png" width="160" height="75" /></g></g></g><g clip-path="url(#21)"></g><g clip-path="url(#22)"><g transform="matrix(0.24 0 0 0.24 219.8306 671.3408)"><g transform="matrix(1 0 0 1 0 0)"><image x="0" y="0" xlink:href="img_07.png" width="1471" height="86" /></g></g></g><g clip-path="url(#23)"></g><g clip-path="url(#24)"></g><g clip-path="url(#25)"><g transform="matrix(0.24 0 0 0.24 215.2706 712.1408)"><g transform="matrix(1 0 0 1 0 0)"><image x="0" y="0" xlink:href="img_28.png" width="1450" height="386" /></g></g></g><g clip-path="url(#26)"></g><g clip-path="url(#27)"></g><g clip-path="url(#28)"></g><g clip-path="url(#29)"></g><g clip-path="url(#30)"><path transform="matrix(1 0 0 -1 0 841)" d="M186.4706 841.7792L185.8706 -0.9208374" stroke="#A6A6A6" stroke-width="2.16" fill="none" /></g></g></g></svg>